<svg xmlns="http://www.w3.org/2000/svg" viewBox="0 0 960 600" role="img" aria-labelledby="title desc">
  <title id="title">Where tensor and pipeline parallelism cross the inter-card link, per decode token, on an 80-layer 70B across two Radeon AI PRO R9700s</title>
  <desc id="desc">A data visualization on a deep navy background. Two horizontal layer rails run left to right from layer 0 to layer 79. The upper rail, labeled tensor parallel, is covered in a dense comb of 160 short amber tick marks, two at every layer, captioned 160 all-reduces per token, about 16 kilobytes each, every tick a cross-card synchronization. The lower rail, labeled pipeline parallel, is empty except for a single tall teal tick at the boundary between layer 39 and layer 40, captioned 1 handoff per token. A right panel titled the link between the cards compares two horizontal bars: PCIe 5.0 x16 at 63 gigabytes per second per direction with high per-collective latency, the link two R9700s share, in amber, and Infinity Fabric on Instinct at 128 gigabytes per second per link across seven fully connected links with low latency, in teal, the link they do not have. A footer credits Megatron-LM, the AMD ROCm MI300 architecture docs, and the PCI Express specification.</desc>
  <rect x="0" y="0" width="960" height="600" fill="#0e1626"/>
  <text x="36" y="42" font-family="ui-sans-serif, system-ui, -apple-system, Segoe UI, Helvetica, Arial, sans-serif" font-size="21" font-weight="700" fill="#eef2f8">Where each split crosses the link, per decode token</text>
  <text x="36" y="64" font-family="ui-sans-serif, system-ui, -apple-system, Segoe UI, Helvetica, Arial, sans-serif" font-size="13" fill="#9fb0c8">80-layer, 70B-class model split across two Radeon AI PRO R9700s over PCIe</text>
  <rect x="32" y="82" width="600" height="430" rx="11" fill="#121d31" stroke="#26344f" stroke-width="1"/>
  <rect x="648" y="82" width="280" height="430" rx="11" fill="#121d31" stroke="#26344f" stroke-width="1"/>
  <text x="72" y="120" font-family="ui-sans-serif, system-ui, -apple-system, Segoe UI, Helvetica, Arial, sans-serif" font-size="15.5" font-weight="700" fill="#f4a13c">Tensor parallel</text>
  <text x="72" y="138" font-family="ui-sans-serif, system-ui, -apple-system, Segoe UI, Helvetica, Arial, sans-serif" font-size="11.5" fill="#9fb0c8">split every weight matrix across both cards; sum partial results each layer</text>
  <line x1="72" y1="168" x2="600" y2="168" stroke="#2b3a58" stroke-width="1"/>
  <g>
    <line x1="73.60" y1="153" x2="73.60" y2="183" stroke="#f4a13c" stroke-width="1.5" stroke-opacity="0.92"/>
    <line x1="77.00" y1="153" x2="77.00" y2="183" stroke="#f4a13c" stroke-width="1.5" stroke-opacity="0.92"/>
    <line x1="80.20" y1="153" x2="80.20" y2="183" stroke="#f4a13c" stroke-width="1.5" stroke-opacity="0.92"/>
    <line x1="83.60" y1="153" x2="83.60" y2="183" stroke="#f4a13c" stroke-width="1.5" stroke-opacity="0.92"/>
    <line x1="86.80" y1="153" x2="86.80" y2="183" stroke="#f4a13c" stroke-width="1.5" stroke-opacity="0.92"/>
    <line x1="90.20" y1="153" x2="90.20" y2="183" stroke="#f4a13c" stroke-width="1.5" stroke-opacity="0.92"/>
    <line x1="93.40" y1="153" x2="93.40" y2="183" stroke="#f4a13c" stroke-width="1.5" stroke-opacity="0.92"/>
    <line x1="96.80" y1="153" x2="96.80" y2="183" stroke="#f4a13c" stroke-width="1.5" stroke-opacity="0.92"/>
    <line x1="100.00" y1="153" x2="100.00" y2="183" stroke="#f4a13c" stroke-width="1.5" stroke-opacity="0.92"/>
    <line x1="103.40" y1="153" x2="103.40" y2="183" stroke="#f4a13c" stroke-width="1.5" stroke-opacity="0.92"/>
    <line x1="106.60" y1="153" x2="106.60" y2="183" stroke="#f4a13c" stroke-width="1.5" stroke-opacity="0.92"/>
    <line x1="110.00" y1="153" x2="110.00" y2="183" stroke="#f4a13c" stroke-width="1.5" stroke-opacity="0.92"/>
    <line x1="113.20" y1="153" x2="113.20" y2="183" stroke="#f4a13c" stroke-width="1.5" stroke-opacity="0.92"/>
    <line x1="116.60" y1="153" x2="116.60" y2="183" stroke="#f4a13c" stroke-width="1.5" stroke-opacity="0.92"/>
    <line x1="119.80" y1="153" x2="119.80" y2="183" stroke="#f4a13c" stroke-width="1.5" stroke-opacity="0.92"/>
    <line x1="123.20" y1="153" x2="123.20" y2="183" stroke="#f4a13c" stroke-width="1.5" stroke-opacity="0.92"/>
    <line x1="126.40" y1="153" x2="126.40" y2="183" stroke="#f4a13c" stroke-width="1.5" stroke-opacity="0.92"/>
    <line x1="129.80" y1="153" x2="129.80" y2="183" stroke="#f4a13c" stroke-width="1.5" stroke-opacity="0.92"/>
    <line x1="133.00" y1="153" x2="133.00" y2="183" stroke="#f4a13c" stroke-width="1.5" stroke-opacity="0.92"/>
    <line x1="136.40" y1="153" x2="136.40" y2="183" stroke="#f4a13c" stroke-width="1.5" stroke-opacity="0.92"/>
    <line x1="139.60" y1="153" x2="139.60" y2="183" stroke="#f4a13c" stroke-width="1.5" stroke-opacity="0.92"/>
    <line x1="143.00" y1="153" x2="143.00" y2="183" stroke="#f4a13c" stroke-width="1.5" stroke-opacity="0.92"/>
    <line x1="146.20" y1="153" x2="146.20" y2="183" stroke="#f4a13c" stroke-width="1.5" stroke-opacity="0.92"/>
    <line x1="149.60" y1="153" x2="149.60" y2="183" stroke="#f4a13c" stroke-width="1.5" stroke-opacity="0.92"/>
    <line x1="152.80" y1="153" x2="152.80" y2="183" stroke="#f4a13c" stroke-width="1.5" stroke-opacity="0.92"/>
    <line x1="156.20" y1="153" x2="156.20" y2="183" stroke="#f4a13c" stroke-width="1.5" stroke-opacity="0.92"/>
    <line x1="159.40" y1="153" x2="159.40" y2="183" stroke="#f4a13c" stroke-width="1.5" stroke-opacity="0.92"/>
    <line x1="162.80" y1="153" x2="162.80" y2="183" stroke="#f4a13c" stroke-width="1.5" stroke-opacity="0.92"/>
    <line x1="166.00" y1="153" x2="166.00" y2="183" stroke="#f4a13c" stroke-width="1.5" stroke-opacity="0.92"/>
    <line x1="169.40" y1="153" x2="169.40" y2="183" stroke="#f4a13c" stroke-width="1.5" stroke-opacity="0.92"/>
    <line x1="172.60" y1="153" x2="172.60" y2="183" stroke="#f4a13c" stroke-width="1.5" stroke-opacity="0.92"/>
    <line x1="176.00" y1="153" x2="176.00" y2="183" stroke="#f4a13c" stroke-width="1.5" stroke-opacity="0.92"/>
    <line x1="179.20" y1="153" x2="179.20" y2="183" stroke="#f4a13c" stroke-width="1.5" stroke-opacity="0.92"/>
    <line x1="182.60" y1="153" x2="182.60" y2="183" stroke="#f4a13c" stroke-width="1.5" stroke-opacity="0.92"/>
    <line x1="185.80" y1="153" x2="185.80" y2="183" stroke="#f4a13c" stroke-width="1.5" stroke-opacity="0.92"/>
    <line x1="189.20" y1="153" x2="189.20" y2="183" stroke="#f4a13c" stroke-width="1.5" stroke-opacity="0.92"/>
    <line x1="192.40" y1="153" x2="192.40" y2="183" stroke="#f4a13c" stroke-width="1.5" stroke-opacity="0.92"/>
    <line x1="195.80" y1="153" x2="195.80" y2="183" stroke="#f4a13c" stroke-width="1.5" stroke-opacity="0.92"/>
    <line x1="199.00" y1="153" x2="199.00" y2="183" stroke="#f4a13c" stroke-width="1.5" stroke-opacity="0.92"/>
    <line x1="202.40" y1="153" x2="202.40" y2="183" stroke="#f4a13c" stroke-width="1.5" stroke-opacity="0.92"/>
    <line x1="205.60" y1="153" x2="205.60" y2="183" stroke="#f4a13c" stroke-width="1.5" stroke-opacity="0.92"/>
    <line x1="209.00" y1="153" x2="209.00" y2="183" stroke="#f4a13c" stroke-width="1.5" stroke-opacity="0.92"/>
    <line x1="212.20" y1="153" x2="212.20" y2="183" stroke="#f4a13c" stroke-width="1.5" stroke-opacity="0.92"/>
    <line x1="215.60" y1="153" x2="215.60" y2="183" stroke="#f4a13c" stroke-width="1.5" stroke-opacity="0.92"/>
    <line x1="218.80" y1="153" x2="218.80" y2="183" stroke="#f4a13c" stroke-width="1.5" stroke-opacity="0.92"/>
    <line x1="222.20" y1="153" x2="222.20" y2="183" stroke="#f4a13c" stroke-width="1.5" stroke-opacity="0.92"/>
    <line x1="225.40" y1="153" x2="225.40" y2="183" stroke="#f4a13c" stroke-width="1.5" stroke-opacity="0.92"/>
    <line x1="228.80" y1="153" x2="228.80" y2="183" stroke="#f4a13c" stroke-width="1.5" stroke-opacity="0.92"/>
    <line x1="232.00" y1="153" x2="232.00" y2="183" stroke="#f4a13c" stroke-width="1.5" stroke-opacity="0.92"/>
    <line x1="235.40" y1="153" x2="235.40" y2="183" stroke="#f4a13c" stroke-width="1.5" stroke-opacity="0.92"/>
    <line x1="238.60" y1="153" x2="238.60" y2="183" stroke="#f4a13c" stroke-width="1.5" stroke-opacity="0.92"/>
    <line x1="242.00" y1="153" x2="242.00" y2="183" stroke="#f4a13c" stroke-width="1.5" stroke-opacity="0.92"/>
    <line x1="245.20" y1="153" x2="245.20" y2="183" stroke="#f4a13c" stroke-width="1.5" stroke-opacity="0.92"/>
    <line x1="248.60" y1="153" x2="248.60" y2="183" stroke="#f4a13c" stroke-width="1.5" stroke-opacity="0.92"/>
    <line x1="251.80" y1="153" x2="251.80" y2="183" stroke="#f4a13c" stroke-width="1.5" stroke-opacity="0.92"/>
    <line x1="255.20" y1="153" x2="255.20" y2="183" stroke="#f4a13c" stroke-width="1.5" stroke-opacity="0.92"/>
    <line x1="258.40" y1="153" x2="258.40" y2="183" stroke="#f4a13c" stroke-width="1.5" stroke-opacity="0.92"/>
    <line x1="261.80" y1="153" x2="261.80" y2="183" stroke="#f4a13c" stroke-width="1.5" stroke-opacity="0.92"/>
    <line x1="265.00" y1="153" x2="265.00" y2="183" stroke="#f4a13c" stroke-width="1.5" stroke-opacity="0.92"/>
    <line x1="268.40" y1="153" x2="268.40" y2="183" stroke="#f4a13c" stroke-width="1.5" stroke-opacity="0.92"/>
    <line x1="271.60" y1="153" x2="271.60" y2="183" stroke="#f4a13c" stroke-width="1.5" stroke-opacity="0.92"/>
    <line x1="275.00" y1="153" x2="275.00" y2="183" stroke="#f4a13c" stroke-width="1.5" stroke-opacity="0.92"/>
    <line x1="278.20" y1="153" x2="278.20" y2="183" stroke="#f4a13c" stroke-width="1.5" stroke-opacity="0.92"/>
    <line x1="281.60" y1="153" x2="281.60" y2="183" stroke="#f4a13c" stroke-width="1.5" stroke-opacity="0.92"/>
    <line x1="284.80" y1="153" x2="284.80" y2="183" stroke="#f4a13c" stroke-width="1.5" stroke-opacity="0.92"/>
    <line x1="288.20" y1="153" x2="288.20" y2="183" stroke="#f4a13c" stroke-width="1.5" stroke-opacity="0.92"/>
    <line x1="291.40" y1="153" x2="291.40" y2="183" stroke="#f4a13c" stroke-width="1.5" stroke-opacity="0.92"/>
    <line x1="294.80" y1="153" x2="294.80" y2="183" stroke="#f4a13c" stroke-width="1.5" stroke-opacity="0.92"/>
    <line x1="298.00" y1="153" x2="298.00" y2="183" stroke="#f4a13c" stroke-width="1.5" stroke-opacity="0.92"/>
    <line x1="301.40" y1="153" x2="301.40" y2="183" stroke="#f4a13c" stroke-width="1.5" stroke-opacity="0.92"/>
    <line x1="304.60" y1="153" x2="304.60" y2="183" stroke="#f4a13c" stroke-width="1.5" stroke-opacity="0.92"/>
    <line x1="308.00" y1="153" x2="308.00" y2="183" stroke="#f4a13c" stroke-width="1.5" stroke-opacity="0.92"/>
    <line x1="311.20" y1="153" x2="311.20" y2="183" stroke="#f4a13c" stroke-width="1.5" stroke-opacity="0.92"/>
    <line x1="314.60" y1="153" x2="314.60" y2="183" stroke="#f4a13c" stroke-width="1.5" stroke-opacity="0.92"/>
    <line x1="317.80" y1="153" x2="317.80" y2="183" stroke="#f4a13c" stroke-width="1.5" stroke-opacity="0.92"/>
    <line x1="321.20" y1="153" x2="321.20" y2="183" stroke="#f4a13c" stroke-width="1.5" stroke-opacity="0.92"/>
    <line x1="324.40" y1="153" x2="324.40" y2="183" stroke="#f4a13c" stroke-width="1.5" stroke-opacity="0.92"/>
    <line x1="327.80" y1="153" x2="327.80" y2="183" stroke="#f4a13c" stroke-width="1.5" stroke-opacity="0.92"/>
    <line x1="331.00" y1="153" x2="331.00" y2="183" stroke="#f4a13c" stroke-width="1.5" stroke-opacity="0.92"/>
    <line x1="334.40" y1="153" x2="334.40" y2="183" stroke="#f4a13c" stroke-width="1.5" stroke-opacity="0.92"/>
    <line x1="337.60" y1="153" x2="337.60" y2="183" stroke="#f4a13c" stroke-width="1.5" stroke-opacity="0.92"/>
    <line x1="341.00" y1="153" x2="341.00" y2="183" stroke="#f4a13c" stroke-width="1.5" stroke-opacity="0.92"/>
    <line x1="344.20" y1="153" x2="344.20" y2="183" stroke="#f4a13c" stroke-width="1.5" stroke-opacity="0.92"/>
    <line x1="347.60" y1="153" x2="347.60" y2="183" stroke="#f4a13c" stroke-width="1.5" stroke-opacity="0.92"/>
    <line x1="350.80" y1="153" x2="350.80" y2="183" stroke="#f4a13c" stroke-width="1.5" stroke-opacity="0.92"/>
    <line x1="354.20" y1="153" x2="354.20" y2="183" stroke="#f4a13c" stroke-width="1.5" stroke-opacity="0.92"/>
    <line x1="357.40" y1="153" x2="357.40" y2="183" stroke="#f4a13c" stroke-width="1.5" stroke-opacity="0.92"/>
    <line x1="360.80" y1="153" x2="360.80" y2="183" stroke="#f4a13c" stroke-width="1.5" stroke-opacity="0.92"/>
    <line x1="364.00" y1="153" x2="364.00" y2="183" stroke="#f4a13c" stroke-width="1.5" stroke-opacity="0.92"/>
    <line x1="367.40" y1="153" x2="367.40" y2="183" stroke="#f4a13c" stroke-width="1.5" stroke-opacity="0.92"/>
    <line x1="370.60" y1="153" x2="370.60" y2="183" stroke="#f4a13c" stroke-width="1.5" stroke-opacity="0.92"/>
    <line x1="374.00" y1="153" x2="374.00" y2="183" stroke="#f4a13c" stroke-width="1.5" stroke-opacity="0.92"/>
    <line x1="377.20" y1="153" x2="377.20" y2="183" stroke="#f4a13c" stroke-width="1.5" stroke-opacity="0.92"/>
    <line x1="380.60" y1="153" x2="380.60" y2="183" stroke="#f4a13c" stroke-width="1.5" stroke-opacity="0.92"/>
    <line x1="383.80" y1="153" x2="383.80" y2="183" stroke="#f4a13c" stroke-width="1.5" stroke-opacity="0.92"/>
    <line x1="387.20" y1="153" x2="387.20" y2="183" stroke="#f4a13c" stroke-width="1.5" stroke-opacity="0.92"/>
    <line x1="390.40" y1="153" x2="390.40" y2="183" stroke="#f4a13c" stroke-width="1.5" stroke-opacity="0.92"/>
    <line x1="393.80" y1="153" x2="393.80" y2="183" stroke="#f4a13c" stroke-width="1.5" stroke-opacity="0.92"/>
    <line x1="397.00" y1="153" x2="397.00" y2="183" stroke="#f4a13c" stroke-width="1.5" stroke-opacity="0.92"/>
    <line x1="400.40" y1="153" x2="400.40" y2="183" stroke="#f4a13c" stroke-width="1.5" stroke-opacity="0.92"/>
    <line x1="403.60" y1="153" x2="403.60" y2="183" stroke="#f4a13c" stroke-width="1.5" stroke-opacity="0.92"/>
    <line x1="407.00" y1="153" x2="407.00" y2="183" stroke="#f4a13c" stroke-width="1.5" stroke-opacity="0.92"/>
    <line x1="410.20" y1="153" x2="410.20" y2="183" stroke="#f4a13c" stroke-width="1.5" stroke-opacity="0.92"/>
    <line x1="413.60" y1="153" x2="413.60" y2="183" stroke="#f4a13c" stroke-width="1.5" stroke-opacity="0.92"/>
    <line x1="416.80" y1="153" x2="416.80" y2="183" stroke="#f4a13c" stroke-width="1.5" stroke-opacity="0.92"/>
    <line x1="420.20" y1="153" x2="420.20" y2="183" stroke="#f4a13c" stroke-width="1.5" stroke-opacity="0.92"/>
    <line x1="423.40" y1="153" x2="423.40" y2="183" stroke="#f4a13c" stroke-width="1.5" stroke-opacity="0.92"/>
    <line x1="426.80" y1="153" x2="426.80" y2="183" stroke="#f4a13c" stroke-width="1.5" stroke-opacity="0.92"/>
    <line x1="430.00" y1="153" x2="430.00" y2="183" stroke="#f4a13c" stroke-width="1.5" stroke-opacity="0.92"/>
    <line x1="433.40" y1="153" x2="433.40" y2="183" stroke="#f4a13c" stroke-width="1.5" stroke-opacity="0.92"/>
    <line x1="436.60" y1="153" x2="436.60" y2="183" stroke="#f4a13c" stroke-width="1.5" stroke-opacity="0.92"/>
    <line x1="440.00" y1="153" x2="440.00" y2="183" stroke="#f4a13c" stroke-width="1.5" stroke-opacity="0.92"/>
    <line x1="443.20" y1="153" x2="443.20" y2="183" stroke="#f4a13c" stroke-width="1.5" stroke-opacity="0.92"/>
    <line x1="446.60" y1="153" x2="446.60" y2="183" stroke="#f4a13c" stroke-width="1.5" stroke-opacity="0.92"/>
    <line x1="449.80" y1="153" x2="449.80" y2="183" stroke="#f4a13c" stroke-width="1.5" stroke-opacity="0.92"/>
    <line x1="453.20" y1="153" x2="453.20" y2="183" stroke="#f4a13c" stroke-width="1.5" stroke-opacity="0.92"/>
    <line x1="456.40" y1="153" x2="456.40" y2="183" stroke="#f4a13c" stroke-width="1.5" stroke-opacity="0.92"/>
    <line x1="459.80" y1="153" x2="459.80" y2="183" stroke="#f4a13c" stroke-width="1.5" stroke-opacity="0.92"/>
    <line x1="463.00" y1="153" x2="463.00" y2="183" stroke="#f4a13c" stroke-width="1.5" stroke-opacity="0.92"/>
    <line x1="466.40" y1="153" x2="466.40" y2="183" stroke="#f4a13c" stroke-width="1.5" stroke-opacity="0.92"/>
    <line x1="469.60" y1="153" x2="469.60" y2="183" stroke="#f4a13c" stroke-width="1.5" stroke-opacity="0.92"/>
    <line x1="473.00" y1="153" x2="473.00" y2="183" stroke="#f4a13c" stroke-width="1.5" stroke-opacity="0.92"/>
    <line x1="476.20" y1="153" x2="476.20" y2="183" stroke="#f4a13c" stroke-width="1.5" stroke-opacity="0.92"/>
    <line x1="479.60" y1="153" x2="479.60" y2="183" stroke="#f4a13c" stroke-width="1.5" stroke-opacity="0.92"/>
    <line x1="482.80" y1="153" x2="482.80" y2="183" stroke="#f4a13c" stroke-width="1.5" stroke-opacity="0.92"/>
    <line x1="486.20" y1="153" x2="486.20" y2="183" stroke="#f4a13c" stroke-width="1.5" stroke-opacity="0.92"/>
    <line x1="489.40" y1="153" x2="489.40" y2="183" stroke="#f4a13c" stroke-width="1.5" stroke-opacity="0.92"/>
    <line x1="492.80" y1="153" x2="492.80" y2="183" stroke="#f4a13c" stroke-width="1.5" stroke-opacity="0.92"/>
    <line x1="496.00" y1="153" x2="496.00" y2="183" stroke="#f4a13c" stroke-width="1.5" stroke-opacity="0.92"/>
    <line x1="499.40" y1="153" x2="499.40" y2="183" stroke="#f4a13c" stroke-width="1.5" stroke-opacity="0.92"/>
    <line x1="502.60" y1="153" x2="502.60" y2="183" stroke="#f4a13c" stroke-width="1.5" stroke-opacity="0.92"/>
    <line x1="506.00" y1="153" x2="506.00" y2="183" stroke="#f4a13c" stroke-width="1.5" stroke-opacity="0.92"/>
    <line x1="509.20" y1="153" x2="509.20" y2="183" stroke="#f4a13c" stroke-width="1.5" stroke-opacity="0.92"/>
    <line x1="512.60" y1="153" x2="512.60" y2="183" stroke="#f4a13c" stroke-width="1.5" stroke-opacity="0.92"/>
    <line x1="515.80" y1="153" x2="515.80" y2="183" stroke="#f4a13c" stroke-width="1.5" stroke-opacity="0.92"/>
    <line x1="519.20" y1="153" x2="519.20" y2="183" stroke="#f4a13c" stroke-width="1.5" stroke-opacity="0.92"/>
    <line x1="522.40" y1="153" x2="522.40" y2="183" stroke="#f4a13c" stroke-width="1.5" stroke-opacity="0.92"/>
    <line x1="525.80" y1="153" x2="525.80" y2="183" stroke="#f4a13c" stroke-width="1.5" stroke-opacity="0.92"/>
    <line x1="529.00" y1="153" x2="529.00" y2="183" stroke="#f4a13c" stroke-width="1.5" stroke-opacity="0.92"/>
    <line x1="532.40" y1="153" x2="532.40" y2="183" stroke="#f4a13c" stroke-width="1.5" stroke-opacity="0.92"/>
    <line x1="535.60" y1="153" x2="535.60" y2="183" stroke="#f4a13c" stroke-width="1.5" stroke-opacity="0.92"/>
    <line x1="539.00" y1="153" x2="539.00" y2="183" stroke="#f4a13c" stroke-width="1.5" stroke-opacity="0.92"/>
    <line x1="542.20" y1="153" x2="542.20" y2="183" stroke="#f4a13c" stroke-width="1.5" stroke-opacity="0.92"/>
    <line x1="545.60" y1="153" x2="545.60" y2="183" stroke="#f4a13c" stroke-width="1.5" stroke-opacity="0.92"/>
    <line x1="548.80" y1="153" x2="548.80" y2="183" stroke="#f4a13c" stroke-width="1.5" stroke-opacity="0.92"/>
    <line x1="552.20" y1="153" x2="552.20" y2="183" stroke="#f4a13c" stroke-width="1.5" stroke-opacity="0.92"/>
    <line x1="555.40" y1="153" x2="555.40" y2="183" stroke="#f4a13c" stroke-width="1.5" stroke-opacity="0.92"/>
    <line x1="558.80" y1="153" x2="558.80" y2="183" stroke="#f4a13c" stroke-width="1.5" stroke-opacity="0.92"/>
    <line x1="562.00" y1="153" x2="562.00" y2="183" stroke="#f4a13c" stroke-width="1.5" stroke-opacity="0.92"/>
    <line x1="565.40" y1="153" x2="565.40" y2="183" stroke="#f4a13c" stroke-width="1.5" stroke-opacity="0.92"/>
    <line x1="568.60" y1="153" x2="568.60" y2="183" stroke="#f4a13c" stroke-width="1.5" stroke-opacity="0.92"/>
    <line x1="572.00" y1="153" x2="572.00" y2="183" stroke="#f4a13c" stroke-width="1.5" stroke-opacity="0.92"/>
    <line x1="575.20" y1="153" x2="575.20" y2="183" stroke="#f4a13c" stroke-width="1.5" stroke-opacity="0.92"/>
    <line x1="578.60" y1="153" x2="578.60" y2="183" stroke="#f4a13c" stroke-width="1.5" stroke-opacity="0.92"/>
    <line x1="581.80" y1="153" x2="581.80" y2="183" stroke="#f4a13c" stroke-width="1.5" stroke-opacity="0.92"/>
    <line x1="585.20" y1="153" x2="585.20" y2="183" stroke="#f4a13c" stroke-width="1.5" stroke-opacity="0.92"/>
    <line x1="588.40" y1="153" x2="588.40" y2="183" stroke="#f4a13c" stroke-width="1.5" stroke-opacity="0.92"/>
    <line x1="591.80" y1="153" x2="591.80" y2="183" stroke="#f4a13c" stroke-width="1.5" stroke-opacity="0.92"/>
    <line x1="595.00" y1="153" x2="595.00" y2="183" stroke="#f4a13c" stroke-width="1.5" stroke-opacity="0.92"/>
    <line x1="598.40" y1="153" x2="598.40" y2="183" stroke="#f4a13c" stroke-width="1.5" stroke-opacity="0.92"/>
  </g>
  <text x="72" y="212" font-family="ui-sans-serif, system-ui, -apple-system, Segoe UI, Helvetica, Arial, sans-serif" font-size="22" font-weight="700" fill="#f4a13c">160 all-reduces<tspan font-size="13" font-weight="400" fill="#9fb0c8">  per token</tspan></text>
  <text x="72" y="231" font-family="ui-sans-serif, system-ui, -apple-system, Segoe UI, Helvetica, Arial, sans-serif" font-size="11.5" fill="#9fb0c8">2 per layer x 80 layers . ~16 KB each . every tick is a cross-card sync</text>
  <line x1="56" y1="258" x2="608" y2="258" stroke="#26344f" stroke-width="1" stroke-dasharray="2 4"/>
  <text x="72" y="298" font-family="ui-sans-serif, system-ui, -apple-system, Segoe UI, Helvetica, Arial, sans-serif" font-size="15.5" font-weight="700" fill="#54d1c4">Pipeline parallel</text>
  <text x="72" y="316" font-family="ui-sans-serif, system-ui, -apple-system, Segoe UI, Helvetica, Arial, sans-serif" font-size="11.5" fill="#9fb0c8">layers 0-39 on card A, layers 40-79 on card B</text>
  <line x1="72" y1="352" x2="600" y2="352" stroke="#2b3a58" stroke-width="1"/>
  <line x1="336.00" y1="328" x2="336.00" y2="376" stroke="#54d1c4" stroke-width="3"/>
  <text x="76" y="345" font-family="ui-sans-serif, system-ui, -apple-system, Segoe UI, Helvetica, Arial, sans-serif" font-size="11" fill="#6b7c98">card A</text>
  <text x="596" y="345" text-anchor="end" font-family="ui-sans-serif, system-ui, -apple-system, Segoe UI, Helvetica, Arial, sans-serif" font-size="11" fill="#6b7c98">card B</text>
  <text x="72" y="402" font-family="ui-sans-serif, system-ui, -apple-system, Segoe UI, Helvetica, Arial, sans-serif" font-size="22" font-weight="700" fill="#54d1c4">1 handoff<tspan font-size="13" font-weight="400" fill="#9fb0c8">  per token</tspan></text>
  <text x="72" y="421" font-family="ui-sans-serif, system-ui, -apple-system, Segoe UI, Helvetica, Arial, sans-serif" font-size="11.5" fill="#9fb0c8">~16 KB . one boundary crossing . no single-stream speedup</text>
  <line x1="72" y1="458" x2="600" y2="458" stroke="#26344f" stroke-width="1"/>
  <line x1="75.3" y1="458" x2="75.3" y2="463" stroke="#26344f" stroke-width="1"/>
  <text x="75.3" y="476" text-anchor="middle" font-family="ui-sans-serif, system-ui, -apple-system, Segoe UI, Helvetica, Arial, sans-serif" font-size="10.5" fill="#6b7c98">0</text>
  <line x1="207.3" y1="458" x2="207.3" y2="463" stroke="#26344f" stroke-width="1"/>
  <text x="207.3" y="476" text-anchor="middle" font-family="ui-sans-serif, system-ui, -apple-system, Segoe UI, Helvetica, Arial, sans-serif" font-size="10.5" fill="#6b7c98">20</text>
  <line x1="339.3" y1="458" x2="339.3" y2="463" stroke="#26344f" stroke-width="1"/>
  <text x="339.3" y="476" text-anchor="middle" font-family="ui-sans-serif, system-ui, -apple-system, Segoe UI, Helvetica, Arial, sans-serif" font-size="10.5" fill="#6b7c98">40</text>
  <line x1="471.3" y1="458" x2="471.3" y2="463" stroke="#26344f" stroke-width="1"/>
  <text x="471.3" y="476" text-anchor="middle" font-family="ui-sans-serif, system-ui, -apple-system, Segoe UI, Helvetica, Arial, sans-serif" font-size="10.5" fill="#6b7c98">60</text>
  <line x1="596.7" y1="458" x2="596.7" y2="463" stroke="#26344f" stroke-width="1"/>
  <text x="596.7" y="476" text-anchor="middle" font-family="ui-sans-serif, system-ui, -apple-system, Segoe UI, Helvetica, Arial, sans-serif" font-size="10.5" fill="#6b7c98">79</text>
  <text x="336" y="492" text-anchor="middle" font-family="ui-sans-serif, system-ui, -apple-system, Segoe UI, Helvetica, Arial, sans-serif" font-size="10.5" fill="#6b7c98">transformer layer, input to output</text>
  <text x="668" y="118" font-family="ui-sans-serif, system-ui, -apple-system, Segoe UI, Helvetica, Arial, sans-serif" font-size="14.5" font-weight="700" fill="#eef2f8">The link between the cards</text>
  <text x="668" y="135" font-family="ui-sans-serif, system-ui, -apple-system, Segoe UI, Helvetica, Arial, sans-serif" font-size="11" fill="#9fb0c8">GPU-to-GPU interconnect</text>
  <text x="668" y="172" font-family="ui-sans-serif, system-ui, -apple-system, Segoe UI, Helvetica, Arial, sans-serif" font-size="12.5" font-weight="700" fill="#f4a13c">PCIe 5.0 x16</text>
  <text x="668" y="187" font-family="ui-sans-serif, system-ui, -apple-system, Segoe UI, Helvetica, Arial, sans-serif" font-size="10.5" fill="#9fb0c8">the link two R9700s share</text>
  <rect x="668" y="194" width="118.1" height="24" rx="3" fill="#f4a13c"/>
  <text x="794.1" y="211" font-family="ui-sans-serif, system-ui, -apple-system, Segoe UI, Helvetica, Arial, sans-serif" font-size="12" font-weight="700" fill="#eef2f8">63 GB/s</text>
  <text x="668" y="236" font-family="ui-sans-serif, system-ui, -apple-system, Segoe UI, Helvetica, Arial, sans-serif" font-size="10.5" fill="#6b7c98">per direction . high per-collective latency</text>
  <text x="668" y="276" font-family="ui-sans-serif, system-ui, -apple-system, Segoe UI, Helvetica, Arial, sans-serif" font-size="12.5" font-weight="700" fill="#54d1c4">Infinity Fabric (Instinct)</text>
  <text x="668" y="291" font-family="ui-sans-serif, system-ui, -apple-system, Segoe UI, Helvetica, Arial, sans-serif" font-size="10.5" fill="#9fb0c8">the link they do not have</text>
  <rect x="668" y="298" width="240.0" height="24" rx="3" fill="#54d1c4"/>
  <text x="674.0" y="315" font-family="ui-sans-serif, system-ui, -apple-system, Segoe UI, Helvetica, Arial, sans-serif" font-size="12" font-weight="700" fill="#06302c">128 GB/s</text>
  <text x="668" y="340" font-family="ui-sans-serif, system-ui, -apple-system, Segoe UI, Helvetica, Arial, sans-serif" font-size="10.5" fill="#6b7c98">per link x7 . fully connected . low latency</text>
  <rect x="664" y="366" width="248" height="118" rx="8" fill="#1a2742" stroke="#26344f" stroke-width="1"/>
  <text x="678" y="388" font-family="ui-sans-serif, system-ui, -apple-system, Segoe UI, Helvetica, Arial, sans-serif" font-size="11.5" fill="#eef2f8">The all-reduce storm was built</text>
  <text x="678" y="404" font-family="ui-sans-serif, system-ui, -apple-system, Segoe UI, Helvetica, Arial, sans-serif" font-size="11.5" fill="#eef2f8">for Infinity Fabric. On two</text>
  <text x="678" y="420" font-family="ui-sans-serif, system-ui, -apple-system, Segoe UI, Helvetica, Arial, sans-serif" font-size="11.5" fill="#eef2f8">R9700s it runs over the shared</text>
  <text x="678" y="436" font-family="ui-sans-serif, system-ui, -apple-system, Segoe UI, Helvetica, Arial, sans-serif" font-size="11.5" fill="#eef2f8">PCIe slot instead, so the layer</text>
  <text x="678" y="452" font-family="ui-sans-serif, system-ui, -apple-system, Segoe UI, Helvetica, Arial, sans-serif" font-size="11.5" fill="#eef2f8">count, not the byte count, sets</text>
  <text x="678" y="468" font-family="ui-sans-serif, system-ui, -apple-system, Segoe UI, Helvetica, Arial, sans-serif" font-size="11.5" fill="#eef2f8">the tensor-parallel decode tax.</text>
  <line x1="32" y1="528" x2="928" y2="528" stroke="#26344f" stroke-width="1"/>
  <text x="36" y="550" font-family="ui-sans-serif, system-ui, -apple-system, Segoe UI, Helvetica, Arial, sans-serif" font-size="10.5" fill="#6b7c98">Sources: Megatron-LM (Shoeybi et al., 2019) . AMD ROCm MI300 architecture docs . PCI Express base specification.</text>
  <text x="36" y="568" font-family="ui-sans-serif, system-ui, -apple-system, Segoe UI, Helvetica, Arial, sans-serif" font-size="10.5" fill="#6b7c98">Decode all-reduce sizing: hidden 8192 x FP16 = ~16 KB per token; 2 x 80 layers = 160 collectives. Prefill scales the payload by the chunk length.</text>
</svg>