<svg xmlns="http://www.w3.org/2000/svg" viewBox="0 0 960 600" role="img" aria-labelledby="title desc" font-family="ui-sans-serif, system-ui, -apple-system, 'Segoe UI', Roboto, Helvetica, Arial">
  <title id="title">Where 1000 temperature-zero Qwen3 runs diverge, and how a fixed split-KV reduction order keeps them locked</title>
  <desc id="desc">Two-panel schematic. The upper panel labeled non-deterministic forward pass shows a horizontal token strip of 110 small squares. Tokens 1 through 102 are uniform pale blue and labeled identical across 1000 runs. At token 103 the strip forks into two diverging branches. The thicker upper branch is labeled Queens, New York, 992 of 1000 runs. The thinner lower branch is labeled New York City, 8 of 1000 runs. A small histogram on the right shows 80 unique completions over 1000 sampling trials, with one bar at 78, one at 8, and a long tail. The lower panel labeled batch-invariant forward pass shows two stacked prefill timelines for the same prompt. The first uses chunked prefill with ubatch 512 and is split into 11 blue blocks of 512 plus a final block of 448. The second uses ubatch 1024 and is split into 5 blocks of 1024 plus a final block of 960. Below both timelines a third row labeled fixed split-KV size 256 shows 24 aligned green ticks of identical width, with every tick sitting under both timelines at the same boundaries. A green check mark on the right reads identical output, 1000 of 1000 runs. A footer credits the Thinking Machines September 2025 analysis, SGLang's 34 percent throughput slowdown, and llama.cpp PR 16016.</desc>

  <defs>
    <linearGradient id="bgGrad" x1="0" y1="0" x2="0" y2="1">
      <stop offset="0%" stop-color="#0f1729"/>
      <stop offset="100%" stop-color="#0a1020"/>
    </linearGradient>
    <linearGradient id="forkGrad" x1="0" y1="0" x2="1" y2="0">
      <stop offset="0%" stop-color="#fb923c" stop-opacity="0.0"/>
      <stop offset="40%" stop-color="#fb923c" stop-opacity="0.9"/>
      <stop offset="100%" stop-color="#fb923c"/>
    </linearGradient>
    <style>
      .panel-title { font: 600 14px ui-sans-serif, system-ui, sans-serif; fill: #f8fafc; letter-spacing: 0.02em; }
      .panel-sub { font: 400 11px ui-sans-serif, system-ui, sans-serif; fill: #94a3b8; }
      .label { font: 500 11px ui-sans-serif, system-ui, sans-serif; fill: #e2e8f0; }
      .label-dim { font: 400 10px ui-sans-serif, system-ui, sans-serif; fill: #94a3b8; }
      .label-mono { font: 500 11px ui-monospace, SFMono-Regular, Menlo, monospace; fill: #cbd5e1; }
      .header { font: 600 18px ui-sans-serif, system-ui, sans-serif; fill: #f8fafc; }
      .subhead { font: 400 12px ui-sans-serif, system-ui, sans-serif; fill: #94a3b8; }
      .footer { font: 400 10px ui-sans-serif, system-ui, sans-serif; fill: #64748b; }
      .tok-uniform { fill: #60a5fa; opacity: 0.85; }
      .tok-fork { fill: #fb923c; }
      .chunk-512 { fill: #3b82f6; opacity: 0.85; }
      .chunk-1024 { fill: #6366f1; opacity: 0.85; }
      .kv-split { fill: #34d399; }
      .bar-major { fill: #f97316; }
      .bar-minor { fill: #fdba74; opacity: 0.7; }
      .bar-tail { fill: #fdba74; opacity: 0.4; }
      .divider { stroke: #1e293b; stroke-width: 1; }
      .check { fill: #34d399; }
    </style>
  </defs>

  <rect width="960" height="600" fill="url(#bgGrad)"/>

  <!-- Top header -->
  <text class="header" x="32" y="38">Where temperature zero stops being deterministic on Qwen3</text>
  <text class="subhead" x="32" y="58">1000 sampling runs at T=0, same prompt, same seed. The forward pass is run-to-run deterministic. It is not batch-invariant.</text>

  <!-- Divider -->
  <line class="divider" x1="32" y1="80" x2="928" y2="80"/>

  <!-- Upper panel: divergence -->
  <text class="panel-title" x="32" y="108">Non-batch-invariant forward pass</text>
  <text class="panel-sub" x="32" y="125">Qwen3-235B, "Tell me about Richard Feynman", greedy decode, 1000 runs.</text>

  <!-- Token strip (110 tokens, first 102 uniform, 103-110 fork) -->
  <g transform="translate(32, 145)">
    <!-- Uniform tokens 1..102, width 5px each -->
    <g>
      <rect class="tok-uniform" x="0"   y="0" width="5" height="22"/>
      <rect class="tok-uniform" x="6"   y="0" width="5" height="22"/>
      <rect class="tok-uniform" x="12"  y="0" width="5" height="22"/>
      <rect class="tok-uniform" x="18"  y="0" width="5" height="22"/>
      <rect class="tok-uniform" x="24"  y="0" width="5" height="22"/>
      <rect class="tok-uniform" x="30"  y="0" width="5" height="22"/>
      <rect class="tok-uniform" x="36"  y="0" width="5" height="22"/>
      <rect class="tok-uniform" x="42"  y="0" width="5" height="22"/>
      <rect class="tok-uniform" x="48"  y="0" width="5" height="22"/>
      <rect class="tok-uniform" x="54"  y="0" width="5" height="22"/>
      <rect class="tok-uniform" x="60"  y="0" width="5" height="22"/>
      <rect class="tok-uniform" x="66"  y="0" width="5" height="22"/>
      <rect class="tok-uniform" x="72"  y="0" width="5" height="22"/>
      <rect class="tok-uniform" x="78"  y="0" width="5" height="22"/>
      <rect class="tok-uniform" x="84"  y="0" width="5" height="22"/>
      <rect class="tok-uniform" x="90"  y="0" width="5" height="22"/>
      <rect class="tok-uniform" x="96"  y="0" width="5" height="22"/>
      <rect class="tok-uniform" x="102" y="0" width="5" height="22"/>
      <rect class="tok-uniform" x="108" y="0" width="5" height="22"/>
      <rect class="tok-uniform" x="114" y="0" width="5" height="22"/>
      <rect class="tok-uniform" x="120" y="0" width="5" height="22"/>
      <rect class="tok-uniform" x="126" y="0" width="5" height="22"/>
      <rect class="tok-uniform" x="132" y="0" width="5" height="22"/>
      <rect class="tok-uniform" x="138" y="0" width="5" height="22"/>
      <rect class="tok-uniform" x="144" y="0" width="5" height="22"/>
      <rect class="tok-uniform" x="150" y="0" width="5" height="22"/>
      <rect class="tok-uniform" x="156" y="0" width="5" height="22"/>
      <rect class="tok-uniform" x="162" y="0" width="5" height="22"/>
      <rect class="tok-uniform" x="168" y="0" width="5" height="22"/>
      <rect class="tok-uniform" x="174" y="0" width="5" height="22"/>
      <rect class="tok-uniform" x="180" y="0" width="5" height="22"/>
      <rect class="tok-uniform" x="186" y="0" width="5" height="22"/>
      <rect class="tok-uniform" x="192" y="0" width="5" height="22"/>
      <rect class="tok-uniform" x="198" y="0" width="5" height="22"/>
      <rect class="tok-uniform" x="204" y="0" width="5" height="22"/>
      <rect class="tok-uniform" x="210" y="0" width="5" height="22"/>
      <rect class="tok-uniform" x="216" y="0" width="5" height="22"/>
      <rect class="tok-uniform" x="222" y="0" width="5" height="22"/>
      <rect class="tok-uniform" x="228" y="0" width="5" height="22"/>
      <rect class="tok-uniform" x="234" y="0" width="5" height="22"/>
      <rect class="tok-uniform" x="240" y="0" width="5" height="22"/>
      <rect class="tok-uniform" x="246" y="0" width="5" height="22"/>
      <rect class="tok-uniform" x="252" y="0" width="5" height="22"/>
      <rect class="tok-uniform" x="258" y="0" width="5" height="22"/>
      <rect class="tok-uniform" x="264" y="0" width="5" height="22"/>
      <rect class="tok-uniform" x="270" y="0" width="5" height="22"/>
      <rect class="tok-uniform" x="276" y="0" width="5" height="22"/>
      <rect class="tok-uniform" x="282" y="0" width="5" height="22"/>
      <rect class="tok-uniform" x="288" y="0" width="5" height="22"/>
      <rect class="tok-uniform" x="294" y="0" width="5" height="22"/>
      <rect class="tok-uniform" x="300" y="0" width="5" height="22"/>
      <rect class="tok-uniform" x="306" y="0" width="5" height="22"/>
      <rect class="tok-uniform" x="312" y="0" width="5" height="22"/>
      <rect class="tok-uniform" x="318" y="0" width="5" height="22"/>
      <rect class="tok-uniform" x="324" y="0" width="5" height="22"/>
      <rect class="tok-uniform" x="330" y="0" width="5" height="22"/>
      <rect class="tok-uniform" x="336" y="0" width="5" height="22"/>
      <rect class="tok-uniform" x="342" y="0" width="5" height="22"/>
      <rect class="tok-uniform" x="348" y="0" width="5" height="22"/>
      <rect class="tok-uniform" x="354" y="0" width="5" height="22"/>
      <rect class="tok-uniform" x="360" y="0" width="5" height="22"/>
      <rect class="tok-uniform" x="366" y="0" width="5" height="22"/>
      <rect class="tok-uniform" x="372" y="0" width="5" height="22"/>
      <rect class="tok-uniform" x="378" y="0" width="5" height="22"/>
      <rect class="tok-uniform" x="384" y="0" width="5" height="22"/>
      <rect class="tok-uniform" x="390" y="0" width="5" height="22"/>
      <rect class="tok-uniform" x="396" y="0" width="5" height="22"/>
      <rect class="tok-uniform" x="402" y="0" width="5" height="22"/>
      <rect class="tok-uniform" x="408" y="0" width="5" height="22"/>
      <rect class="tok-uniform" x="414" y="0" width="5" height="22"/>
      <rect class="tok-uniform" x="420" y="0" width="5" height="22"/>
      <rect class="tok-uniform" x="426" y="0" width="5" height="22"/>
      <rect class="tok-uniform" x="432" y="0" width="5" height="22"/>
      <rect class="tok-uniform" x="438" y="0" width="5" height="22"/>
      <rect class="tok-uniform" x="444" y="0" width="5" height="22"/>
      <rect class="tok-uniform" x="450" y="0" width="5" height="22"/>
      <rect class="tok-uniform" x="456" y="0" width="5" height="22"/>
      <rect class="tok-uniform" x="462" y="0" width="5" height="22"/>
      <rect class="tok-uniform" x="468" y="0" width="5" height="22"/>
      <rect class="tok-uniform" x="474" y="0" width="5" height="22"/>
      <rect class="tok-uniform" x="480" y="0" width="5" height="22"/>
      <rect class="tok-uniform" x="486" y="0" width="5" height="22"/>
      <rect class="tok-uniform" x="492" y="0" width="5" height="22"/>
      <rect class="tok-uniform" x="498" y="0" width="5" height="22"/>
      <rect class="tok-uniform" x="504" y="0" width="5" height="22"/>
      <rect class="tok-uniform" x="510" y="0" width="5" height="22"/>
      <rect class="tok-uniform" x="516" y="0" width="5" height="22"/>
      <rect class="tok-uniform" x="522" y="0" width="5" height="22"/>
      <rect class="tok-uniform" x="528" y="0" width="5" height="22"/>
      <rect class="tok-uniform" x="534" y="0" width="5" height="22"/>
      <rect class="tok-uniform" x="540" y="0" width="5" height="22"/>
      <rect class="tok-uniform" x="546" y="0" width="5" height="22"/>
      <rect class="tok-uniform" x="552" y="0" width="5" height="22"/>
      <rect class="tok-uniform" x="558" y="0" width="5" height="22"/>
      <rect class="tok-uniform" x="564" y="0" width="5" height="22"/>
      <rect class="tok-uniform" x="570" y="0" width="5" height="22"/>
      <rect class="tok-uniform" x="576" y="0" width="5" height="22"/>
      <rect class="tok-uniform" x="582" y="0" width="5" height="22"/>
      <rect class="tok-uniform" x="588" y="0" width="5" height="22"/>
      <rect class="tok-uniform" x="594" y="0" width="5" height="22"/>
      <rect class="tok-uniform" x="600" y="0" width="5" height="22"/>
      <rect class="tok-uniform" x="606" y="0" width="5" height="22"/>
    </g>

    <!-- Fork point marker at token 103 -->
    <line x1="617" y1="-6" x2="617" y2="34" stroke="#fb923c" stroke-width="1.2" stroke-dasharray="2 2"/>
    <text class="label-dim" x="617" y="-10" text-anchor="middle">token 103</text>

    <!-- Upper fork branch: thick orange line to "Queens, New York" -->
    <path d="M 617 11 C 660 11 660 -28 720 -28" stroke="#fb923c" stroke-width="6" fill="none" opacity="0.9"/>
    <rect x="720" y="-44" width="170" height="32" rx="4" fill="#1e293b" stroke="#fb923c" stroke-width="1"/>
    <text class="label" x="730" y="-26">"Queens, New York"</text>
    <text class="label-dim" x="730" y="-14">992 of 1000 runs</text>

    <!-- Lower fork branch: thin orange line to "New York City" -->
    <path d="M 617 11 C 660 11 660 48 720 48" stroke="#fb923c" stroke-width="1.5" fill="none" opacity="0.9"/>
    <rect x="720" y="32" width="170" height="32" rx="4" fill="#1e293b" stroke="#fb923c" stroke-width="1"/>
    <text class="label" x="730" y="50">"New York City"</text>
    <text class="label-dim" x="730" y="62">8 of 1000 runs</text>
  </g>

  <text class="label-dim" x="32" y="195">Tokens 1..102 are bit-identical across all 1000 completions. The first divergence lands at the 103rd token.</text>
  <text class="label-dim" x="32" y="210">Source: Thinking Machines Lab, "Defeating Nondeterminism in LLM Inference", September 2025.</text>

  <!-- Histogram of unique completions -->
  <g transform="translate(32, 240)">
    <text class="label" x="0" y="0">80 unique completions, 1000 sampling trials</text>
    <!-- bars -->
    <rect class="bar-major" x="0"   y="10" width="14" height="58"/>
    <rect class="bar-minor" x="18"  y="44" width="14" height="24"/>
    <rect class="bar-minor" x="36"  y="50" width="14" height="18"/>
    <rect class="bar-minor" x="54"  y="54" width="14" height="14"/>
    <rect class="bar-tail"  x="72"  y="58" width="14" height="10"/>
    <rect class="bar-tail"  x="90"  y="60" width="14" height="8"/>
    <rect class="bar-tail"  x="108" y="62" width="14" height="6"/>
    <rect class="bar-tail"  x="126" y="63" width="14" height="5"/>
    <rect class="bar-tail"  x="144" y="64" width="14" height="4"/>
    <rect class="bar-tail"  x="162" y="65" width="14" height="3"/>
    <rect class="bar-tail"  x="180" y="65" width="14" height="3"/>
    <rect class="bar-tail"  x="198" y="65" width="14" height="3"/>
    <text class="label-mono" x="7" y="82" text-anchor="middle">78</text>
    <text class="label-mono" x="25" y="82" text-anchor="middle">8</text>
    <text class="label-dim" x="220" y="40">A long tail of one-off completions, all from the same prompt at temperature 0.</text>
  </g>

  <!-- Divider -->
  <line class="divider" x1="32" y1="345" x2="928" y2="345"/>

  <!-- Lower panel: fixed split-KV fix -->
  <text class="panel-title" x="32" y="370">Batch-invariant forward pass with fixed split-KV size = 256</text>
  <text class="panel-sub" x="32" y="386">Same 6000-token prompt, two different chunked prefill configurations. The KV reduction landing pattern stays identical.</text>

  <!-- ubatch 512 row: 11 blocks of width 36 + 1 trailing -->
  <g transform="translate(32, 410)">
    <text class="label-dim" x="0" y="-2">ubatch = 512</text>
    <g transform="translate(120, 0)">
      <rect class="chunk-512" x="0"   y="0" width="34" height="20"/>
      <rect class="chunk-512" x="36"  y="0" width="34" height="20"/>
      <rect class="chunk-512" x="72"  y="0" width="34" height="20"/>
      <rect class="chunk-512" x="108" y="0" width="34" height="20"/>
      <rect class="chunk-512" x="144" y="0" width="34" height="20"/>
      <rect class="chunk-512" x="180" y="0" width="34" height="20"/>
      <rect class="chunk-512" x="216" y="0" width="34" height="20"/>
      <rect class="chunk-512" x="252" y="0" width="34" height="20"/>
      <rect class="chunk-512" x="288" y="0" width="34" height="20"/>
      <rect class="chunk-512" x="324" y="0" width="34" height="20"/>
      <rect class="chunk-512" x="360" y="0" width="34" height="20"/>
      <rect class="chunk-512" x="396" y="0" width="34" height="20" opacity="0.6"/>
    </g>
  </g>

  <!-- ubatch 1024 row: 5 blocks of width 72 + 1 trailing -->
  <g transform="translate(32, 445)">
    <text class="label-dim" x="0" y="-2">ubatch = 1024</text>
    <g transform="translate(120, 0)">
      <rect class="chunk-1024" x="0"   y="0" width="70" height="20"/>
      <rect class="chunk-1024" x="72"  y="0" width="70" height="20"/>
      <rect class="chunk-1024" x="144" y="0" width="70" height="20"/>
      <rect class="chunk-1024" x="216" y="0" width="70" height="20"/>
      <rect class="chunk-1024" x="288" y="0" width="70" height="20"/>
      <rect class="chunk-1024" x="360" y="0" width="70" height="20" opacity="0.7"/>
    </g>
  </g>

  <!-- Fixed split-KV ticks row -->
  <g transform="translate(32, 480)">
    <text class="label-dim" x="0" y="-2">fixed split-KV = 256</text>
    <g transform="translate(120, 0)">
      <rect class="kv-split" x="0"   y="0" width="2" height="22"/>
      <rect class="kv-split" x="18"  y="0" width="2" height="22"/>
      <rect class="kv-split" x="36"  y="0" width="2" height="22"/>
      <rect class="kv-split" x="54"  y="0" width="2" height="22"/>
      <rect class="kv-split" x="72"  y="0" width="2" height="22"/>
      <rect class="kv-split" x="90"  y="0" width="2" height="22"/>
      <rect class="kv-split" x="108" y="0" width="2" height="22"/>
      <rect class="kv-split" x="126" y="0" width="2" height="22"/>
      <rect class="kv-split" x="144" y="0" width="2" height="22"/>
      <rect class="kv-split" x="162" y="0" width="2" height="22"/>
      <rect class="kv-split" x="180" y="0" width="2" height="22"/>
      <rect class="kv-split" x="198" y="0" width="2" height="22"/>
      <rect class="kv-split" x="216" y="0" width="2" height="22"/>
      <rect class="kv-split" x="234" y="0" width="2" height="22"/>
      <rect class="kv-split" x="252" y="0" width="2" height="22"/>
      <rect class="kv-split" x="270" y="0" width="2" height="22"/>
      <rect class="kv-split" x="288" y="0" width="2" height="22"/>
      <rect class="kv-split" x="306" y="0" width="2" height="22"/>
      <rect class="kv-split" x="324" y="0" width="2" height="22"/>
      <rect class="kv-split" x="342" y="0" width="2" height="22"/>
      <rect class="kv-split" x="360" y="0" width="2" height="22"/>
      <rect class="kv-split" x="378" y="0" width="2" height="22"/>
      <rect class="kv-split" x="396" y="0" width="2" height="22"/>
      <rect class="kv-split" x="414" y="0" width="2" height="22"/>
    </g>
  </g>

  <!-- Check + identical output box -->
  <g transform="translate(700, 415)">
    <rect x="0" y="0" width="200" height="78" rx="6" fill="#0f2417" stroke="#34d399" stroke-width="1"/>
    <text class="check" x="14" y="22" font-size="18" font-weight="700">✓</text>
    <text class="label" x="36" y="22">Identical output</text>
    <text class="label-dim" x="14" y="42">1000 of 1000 runs match,</text>
    <text class="label-dim" x="14" y="56">across both prefill configs.</text>
    <text class="label-dim" x="14" y="70">SGLang ≈ 34% throughput cost.</text>
  </g>

  <!-- Footer -->
  <line class="divider" x1="32" y1="540" x2="928" y2="540"/>
  <text class="footer" x="32" y="558">Sources: Thinking Machines Lab (Sep 2025), LMSYS SGLang deterministic-inference blog (Sep 2025), llama.cpp PR 16016 (deterministic CUDA mode, opt-in via GGML_DETERMINISTIC).</text>
  <text class="footer" x="32" y="574">RDNA4 / Vulkan: no batch-invariant flash attention path yet. The wave32 scalar FA fix from PR 19625 still uses query-length-dependent split sizes.</text>
  <text class="footer" x="32" y="590">zinc, May 2026.</text>
</svg>
