<svg viewBox="0 0 960 600" xmlns="http://www.w3.org/2000/svg" font-family="Inter, Segoe UI, Helvetica, Arial, sans-serif">
<rect x="0" y="0" width="960" height="600" fill="#15101f"/>
<text x="34" y="38" fill="#efe9f5" font-size="23" font-weight="700">An MoE decode step reads a different 3B every token</text>
<text x="34" y="62" fill="#a99cc0" font-size="14">Qwen3-30B-A3B &#8212; 8 of 128 experts per layer, 48 layers. The lit set moves on the next token.</text>
<rect x="30" y="82" width="566" height="476" rx="10" fill="#1d1630" stroke="#2c2342" stroke-width="1"/>
<text x="48" y="106" fill="#efe9f5" font-size="13.5" font-weight="600">One token&#8217;s route across the stack</text>
<rect x="60.0" y="120.0" width="508.0" height="348.0" fill="#332a4a"/>
<line x1="60.00" y1="120.0" x2="60.00" y2="468.0" stroke="#3a3056" stroke-width="0.4"/>
<line x1="63.97" y1="120.0" x2="63.97" y2="468.0" stroke="#3a3056" stroke-width="0.4"/>
<line x1="67.94" y1="120.0" x2="67.94" y2="468.0" stroke="#3a3056" stroke-width="0.4"/>
<line x1="71.91" y1="120.0" x2="71.91" y2="468.0" stroke="#3a3056" stroke-width="0.4"/>
<line x1="75.88" y1="120.0" x2="75.88" y2="468.0" stroke="#3a3056" stroke-width="0.4"/>
<line x1="79.84" y1="120.0" x2="79.84" y2="468.0" stroke="#3a3056" stroke-width="0.4"/>
<line x1="83.81" y1="120.0" x2="83.81" y2="468.0" stroke="#3a3056" stroke-width="0.4"/>
<line x1="87.78" y1="120.0" x2="87.78" y2="468.0" stroke="#3a3056" stroke-width="0.4"/>
<line x1="91.75" y1="120.0" x2="91.75" y2="468.0" stroke="#3a3056" stroke-width="0.4"/>
<line x1="95.72" y1="120.0" x2="95.72" y2="468.0" stroke="#3a3056" stroke-width="0.4"/>
<line x1="99.69" y1="120.0" x2="99.69" y2="468.0" stroke="#3a3056" stroke-width="0.4"/>
<line x1="103.66" y1="120.0" x2="103.66" y2="468.0" stroke="#3a3056" stroke-width="0.4"/>
<line x1="107.62" y1="120.0" x2="107.62" y2="468.0" stroke="#3a3056" stroke-width="0.4"/>
<line x1="111.59" y1="120.0" x2="111.59" y2="468.0" stroke="#3a3056" stroke-width="0.4"/>
<line x1="115.56" y1="120.0" x2="115.56" y2="468.0" stroke="#3a3056" stroke-width="0.4"/>
<line x1="119.53" y1="120.0" x2="119.53" y2="468.0" stroke="#3a3056" stroke-width="0.4"/>
<line x1="123.50" y1="120.0" x2="123.50" y2="468.0" stroke="#3a3056" stroke-width="0.4"/>
<line x1="127.47" y1="120.0" x2="127.47" y2="468.0" stroke="#3a3056" stroke-width="0.4"/>
<line x1="131.44" y1="120.0" x2="131.44" y2="468.0" stroke="#3a3056" stroke-width="0.4"/>
<line x1="135.41" y1="120.0" x2="135.41" y2="468.0" stroke="#3a3056" stroke-width="0.4"/>
<line x1="139.38" y1="120.0" x2="139.38" y2="468.0" stroke="#3a3056" stroke-width="0.4"/>
<line x1="143.34" y1="120.0" x2="143.34" y2="468.0" stroke="#3a3056" stroke-width="0.4"/>
<line x1="147.31" y1="120.0" x2="147.31" y2="468.0" stroke="#3a3056" stroke-width="0.4"/>
<line x1="151.28" y1="120.0" x2="151.28" y2="468.0" stroke="#3a3056" stroke-width="0.4"/>
<line x1="155.25" y1="120.0" x2="155.25" y2="468.0" stroke="#3a3056" stroke-width="0.4"/>
<line x1="159.22" y1="120.0" x2="159.22" y2="468.0" stroke="#3a3056" stroke-width="0.4"/>
<line x1="163.19" y1="120.0" x2="163.19" y2="468.0" stroke="#3a3056" stroke-width="0.4"/>
<line x1="167.16" y1="120.0" x2="167.16" y2="468.0" stroke="#3a3056" stroke-width="0.4"/>
<line x1="171.12" y1="120.0" x2="171.12" y2="468.0" stroke="#3a3056" stroke-width="0.4"/>
<line x1="175.09" y1="120.0" x2="175.09" y2="468.0" stroke="#3a3056" stroke-width="0.4"/>
<line x1="179.06" y1="120.0" x2="179.06" y2="468.0" stroke="#3a3056" stroke-width="0.4"/>
<line x1="183.03" y1="120.0" x2="183.03" y2="468.0" stroke="#3a3056" stroke-width="0.4"/>
<line x1="187.00" y1="120.0" x2="187.00" y2="468.0" stroke="#3a3056" stroke-width="0.4"/>
<line x1="190.97" y1="120.0" x2="190.97" y2="468.0" stroke="#3a3056" stroke-width="0.4"/>
<line x1="194.94" y1="120.0" x2="194.94" y2="468.0" stroke="#3a3056" stroke-width="0.4"/>
<line x1="198.91" y1="120.0" x2="198.91" y2="468.0" stroke="#3a3056" stroke-width="0.4"/>
<line x1="202.88" y1="120.0" x2="202.88" y2="468.0" stroke="#3a3056" stroke-width="0.4"/>
<line x1="206.84" y1="120.0" x2="206.84" y2="468.0" stroke="#3a3056" stroke-width="0.4"/>
<line x1="210.81" y1="120.0" x2="210.81" y2="468.0" stroke="#3a3056" stroke-width="0.4"/>
<line x1="214.78" y1="120.0" x2="214.78" y2="468.0" stroke="#3a3056" stroke-width="0.4"/>
<line x1="218.75" y1="120.0" x2="218.75" y2="468.0" stroke="#3a3056" stroke-width="0.4"/>
<line x1="222.72" y1="120.0" x2="222.72" y2="468.0" stroke="#3a3056" stroke-width="0.4"/>
<line x1="226.69" y1="120.0" x2="226.69" y2="468.0" stroke="#3a3056" stroke-width="0.4"/>
<line x1="230.66" y1="120.0" x2="230.66" y2="468.0" stroke="#3a3056" stroke-width="0.4"/>
<line x1="234.62" y1="120.0" x2="234.62" y2="468.0" stroke="#3a3056" stroke-width="0.4"/>
<line x1="238.59" y1="120.0" x2="238.59" y2="468.0" stroke="#3a3056" stroke-width="0.4"/>
<line x1="242.56" y1="120.0" x2="242.56" y2="468.0" stroke="#3a3056" stroke-width="0.4"/>
<line x1="246.53" y1="120.0" x2="246.53" y2="468.0" stroke="#3a3056" stroke-width="0.4"/>
<line x1="250.50" y1="120.0" x2="250.50" y2="468.0" stroke="#3a3056" stroke-width="0.4"/>
<line x1="254.47" y1="120.0" x2="254.47" y2="468.0" stroke="#3a3056" stroke-width="0.4"/>
<line x1="258.44" y1="120.0" x2="258.44" y2="468.0" stroke="#3a3056" stroke-width="0.4"/>
<line x1="262.41" y1="120.0" x2="262.41" y2="468.0" stroke="#3a3056" stroke-width="0.4"/>
<line x1="266.38" y1="120.0" x2="266.38" y2="468.0" stroke="#3a3056" stroke-width="0.4"/>
<line x1="270.34" y1="120.0" x2="270.34" y2="468.0" stroke="#3a3056" stroke-width="0.4"/>
<line x1="274.31" y1="120.0" x2="274.31" y2="468.0" stroke="#3a3056" stroke-width="0.4"/>
<line x1="278.28" y1="120.0" x2="278.28" y2="468.0" stroke="#3a3056" stroke-width="0.4"/>
<line x1="282.25" y1="120.0" x2="282.25" y2="468.0" stroke="#3a3056" stroke-width="0.4"/>
<line x1="286.22" y1="120.0" x2="286.22" y2="468.0" stroke="#3a3056" stroke-width="0.4"/>
<line x1="290.19" y1="120.0" x2="290.19" y2="468.0" stroke="#3a3056" stroke-width="0.4"/>
<line x1="294.16" y1="120.0" x2="294.16" y2="468.0" stroke="#3a3056" stroke-width="0.4"/>
<line x1="298.12" y1="120.0" x2="298.12" y2="468.0" stroke="#3a3056" stroke-width="0.4"/>
<line x1="302.09" y1="120.0" x2="302.09" y2="468.0" stroke="#3a3056" stroke-width="0.4"/>
<line x1="306.06" y1="120.0" x2="306.06" y2="468.0" stroke="#3a3056" stroke-width="0.4"/>
<line x1="310.03" y1="120.0" x2="310.03" y2="468.0" stroke="#3a3056" stroke-width="0.4"/>
<line x1="314.00" y1="120.0" x2="314.00" y2="468.0" stroke="#3a3056" stroke-width="0.4"/>
<line x1="317.97" y1="120.0" x2="317.97" y2="468.0" stroke="#3a3056" stroke-width="0.4"/>
<line x1="321.94" y1="120.0" x2="321.94" y2="468.0" stroke="#3a3056" stroke-width="0.4"/>
<line x1="325.91" y1="120.0" x2="325.91" y2="468.0" stroke="#3a3056" stroke-width="0.4"/>
<line x1="329.88" y1="120.0" x2="329.88" y2="468.0" stroke="#3a3056" stroke-width="0.4"/>
<line x1="333.84" y1="120.0" x2="333.84" y2="468.0" stroke="#3a3056" stroke-width="0.4"/>
<line x1="337.81" y1="120.0" x2="337.81" y2="468.0" stroke="#3a3056" stroke-width="0.4"/>
<line x1="341.78" y1="120.0" x2="341.78" y2="468.0" stroke="#3a3056" stroke-width="0.4"/>
<line x1="345.75" y1="120.0" x2="345.75" y2="468.0" stroke="#3a3056" stroke-width="0.4"/>
<line x1="349.72" y1="120.0" x2="349.72" y2="468.0" stroke="#3a3056" stroke-width="0.4"/>
<line x1="353.69" y1="120.0" x2="353.69" y2="468.0" stroke="#3a3056" stroke-width="0.4"/>
<line x1="357.66" y1="120.0" x2="357.66" y2="468.0" stroke="#3a3056" stroke-width="0.4"/>
<line x1="361.62" y1="120.0" x2="361.62" y2="468.0" stroke="#3a3056" stroke-width="0.4"/>
<line x1="365.59" y1="120.0" x2="365.59" y2="468.0" stroke="#3a3056" stroke-width="0.4"/>
<line x1="369.56" y1="120.0" x2="369.56" y2="468.0" stroke="#3a3056" stroke-width="0.4"/>
<line x1="373.53" y1="120.0" x2="373.53" y2="468.0" stroke="#3a3056" stroke-width="0.4"/>
<line x1="377.50" y1="120.0" x2="377.50" y2="468.0" stroke="#3a3056" stroke-width="0.4"/>
<line x1="381.47" y1="120.0" x2="381.47" y2="468.0" stroke="#3a3056" stroke-width="0.4"/>
<line x1="385.44" y1="120.0" x2="385.44" y2="468.0" stroke="#3a3056" stroke-width="0.4"/>
<line x1="389.41" y1="120.0" x2="389.41" y2="468.0" stroke="#3a3056" stroke-width="0.4"/>
<line x1="393.38" y1="120.0" x2="393.38" y2="468.0" stroke="#3a3056" stroke-width="0.4"/>
<line x1="397.34" y1="120.0" x2="397.34" y2="468.0" stroke="#3a3056" stroke-width="0.4"/>
<line x1="401.31" y1="120.0" x2="401.31" y2="468.0" stroke="#3a3056" stroke-width="0.4"/>
<line x1="405.28" y1="120.0" x2="405.28" y2="468.0" stroke="#3a3056" stroke-width="0.4"/>
<line x1="409.25" y1="120.0" x2="409.25" y2="468.0" stroke="#3a3056" stroke-width="0.4"/>
<line x1="413.22" y1="120.0" x2="413.22" y2="468.0" stroke="#3a3056" stroke-width="0.4"/>
<line x1="417.19" y1="120.0" x2="417.19" y2="468.0" stroke="#3a3056" stroke-width="0.4"/>
<line x1="421.16" y1="120.0" x2="421.16" y2="468.0" stroke="#3a3056" stroke-width="0.4"/>
<line x1="425.12" y1="120.0" x2="425.12" y2="468.0" stroke="#3a3056" stroke-width="0.4"/>
<line x1="429.09" y1="120.0" x2="429.09" y2="468.0" stroke="#3a3056" stroke-width="0.4"/>
<line x1="433.06" y1="120.0" x2="433.06" y2="468.0" stroke="#3a3056" stroke-width="0.4"/>
<line x1="437.03" y1="120.0" x2="437.03" y2="468.0" stroke="#3a3056" stroke-width="0.4"/>
<line x1="441.00" y1="120.0" x2="441.00" y2="468.0" stroke="#3a3056" stroke-width="0.4"/>
<line x1="444.97" y1="120.0" x2="444.97" y2="468.0" stroke="#3a3056" stroke-width="0.4"/>
<line x1="448.94" y1="120.0" x2="448.94" y2="468.0" stroke="#3a3056" stroke-width="0.4"/>
<line x1="452.91" y1="120.0" x2="452.91" y2="468.0" stroke="#3a3056" stroke-width="0.4"/>
<line x1="456.88" y1="120.0" x2="456.88" y2="468.0" stroke="#3a3056" stroke-width="0.4"/>
<line x1="460.84" y1="120.0" x2="460.84" y2="468.0" stroke="#3a3056" stroke-width="0.4"/>
<line x1="464.81" y1="120.0" x2="464.81" y2="468.0" stroke="#3a3056" stroke-width="0.4"/>
<line x1="468.78" y1="120.0" x2="468.78" y2="468.0" stroke="#3a3056" stroke-width="0.4"/>
<line x1="472.75" y1="120.0" x2="472.75" y2="468.0" stroke="#3a3056" stroke-width="0.4"/>
<line x1="476.72" y1="120.0" x2="476.72" y2="468.0" stroke="#3a3056" stroke-width="0.4"/>
<line x1="480.69" y1="120.0" x2="480.69" y2="468.0" stroke="#3a3056" stroke-width="0.4"/>
<line x1="484.66" y1="120.0" x2="484.66" y2="468.0" stroke="#3a3056" stroke-width="0.4"/>
<line x1="488.62" y1="120.0" x2="488.62" y2="468.0" stroke="#3a3056" stroke-width="0.4"/>
<line x1="492.59" y1="120.0" x2="492.59" y2="468.0" stroke="#3a3056" stroke-width="0.4"/>
<line x1="496.56" y1="120.0" x2="496.56" y2="468.0" stroke="#3a3056" stroke-width="0.4"/>
<line x1="500.53" y1="120.0" x2="500.53" y2="468.0" stroke="#3a3056" stroke-width="0.4"/>
<line x1="504.50" y1="120.0" x2="504.50" y2="468.0" stroke="#3a3056" stroke-width="0.4"/>
<line x1="508.47" y1="120.0" x2="508.47" y2="468.0" stroke="#3a3056" stroke-width="0.4"/>
<line x1="512.44" y1="120.0" x2="512.44" y2="468.0" stroke="#3a3056" stroke-width="0.4"/>
<line x1="516.41" y1="120.0" x2="516.41" y2="468.0" stroke="#3a3056" stroke-width="0.4"/>
<line x1="520.38" y1="120.0" x2="520.38" y2="468.0" stroke="#3a3056" stroke-width="0.4"/>
<line x1="524.34" y1="120.0" x2="524.34" y2="468.0" stroke="#3a3056" stroke-width="0.4"/>
<line x1="528.31" y1="120.0" x2="528.31" y2="468.0" stroke="#3a3056" stroke-width="0.4"/>
<line x1="532.28" y1="120.0" x2="532.28" y2="468.0" stroke="#3a3056" stroke-width="0.4"/>
<line x1="536.25" y1="120.0" x2="536.25" y2="468.0" stroke="#3a3056" stroke-width="0.4"/>
<line x1="540.22" y1="120.0" x2="540.22" y2="468.0" stroke="#3a3056" stroke-width="0.4"/>
<line x1="544.19" y1="120.0" x2="544.19" y2="468.0" stroke="#3a3056" stroke-width="0.4"/>
<line x1="548.16" y1="120.0" x2="548.16" y2="468.0" stroke="#3a3056" stroke-width="0.4"/>
<line x1="552.12" y1="120.0" x2="552.12" y2="468.0" stroke="#3a3056" stroke-width="0.4"/>
<line x1="556.09" y1="120.0" x2="556.09" y2="468.0" stroke="#3a3056" stroke-width="0.4"/>
<line x1="560.06" y1="120.0" x2="560.06" y2="468.0" stroke="#3a3056" stroke-width="0.4"/>
<line x1="564.03" y1="120.0" x2="564.03" y2="468.0" stroke="#3a3056" stroke-width="0.4"/>
<line x1="568.00" y1="120.0" x2="568.00" y2="468.0" stroke="#3a3056" stroke-width="0.4"/>
<line x1="60.0" y1="120.00" x2="568.0" y2="120.00" stroke="#3a3056" stroke-width="0.4"/>
<line x1="60.0" y1="127.25" x2="568.0" y2="127.25" stroke="#3a3056" stroke-width="0.4"/>
<line x1="60.0" y1="134.50" x2="568.0" y2="134.50" stroke="#3a3056" stroke-width="0.4"/>
<line x1="60.0" y1="141.75" x2="568.0" y2="141.75" stroke="#3a3056" stroke-width="0.4"/>
<line x1="60.0" y1="149.00" x2="568.0" y2="149.00" stroke="#3a3056" stroke-width="0.4"/>
<line x1="60.0" y1="156.25" x2="568.0" y2="156.25" stroke="#3a3056" stroke-width="0.4"/>
<line x1="60.0" y1="163.50" x2="568.0" y2="163.50" stroke="#3a3056" stroke-width="0.4"/>
<line x1="60.0" y1="170.75" x2="568.0" y2="170.75" stroke="#3a3056" stroke-width="0.4"/>
<line x1="60.0" y1="178.00" x2="568.0" y2="178.00" stroke="#3a3056" stroke-width="0.4"/>
<line x1="60.0" y1="185.25" x2="568.0" y2="185.25" stroke="#3a3056" stroke-width="0.4"/>
<line x1="60.0" y1="192.50" x2="568.0" y2="192.50" stroke="#3a3056" stroke-width="0.4"/>
<line x1="60.0" y1="199.75" x2="568.0" y2="199.75" stroke="#3a3056" stroke-width="0.4"/>
<line x1="60.0" y1="207.00" x2="568.0" y2="207.00" stroke="#3a3056" stroke-width="0.4"/>
<line x1="60.0" y1="214.25" x2="568.0" y2="214.25" stroke="#3a3056" stroke-width="0.4"/>
<line x1="60.0" y1="221.50" x2="568.0" y2="221.50" stroke="#3a3056" stroke-width="0.4"/>
<line x1="60.0" y1="228.75" x2="568.0" y2="228.75" stroke="#3a3056" stroke-width="0.4"/>
<line x1="60.0" y1="236.00" x2="568.0" y2="236.00" stroke="#3a3056" stroke-width="0.4"/>
<line x1="60.0" y1="243.25" x2="568.0" y2="243.25" stroke="#3a3056" stroke-width="0.4"/>
<line x1="60.0" y1="250.50" x2="568.0" y2="250.50" stroke="#3a3056" stroke-width="0.4"/>
<line x1="60.0" y1="257.75" x2="568.0" y2="257.75" stroke="#3a3056" stroke-width="0.4"/>
<line x1="60.0" y1="265.00" x2="568.0" y2="265.00" stroke="#3a3056" stroke-width="0.4"/>
<line x1="60.0" y1="272.25" x2="568.0" y2="272.25" stroke="#3a3056" stroke-width="0.4"/>
<line x1="60.0" y1="279.50" x2="568.0" y2="279.50" stroke="#3a3056" stroke-width="0.4"/>
<line x1="60.0" y1="286.75" x2="568.0" y2="286.75" stroke="#3a3056" stroke-width="0.4"/>
<line x1="60.0" y1="294.00" x2="568.0" y2="294.00" stroke="#3a3056" stroke-width="0.4"/>
<line x1="60.0" y1="301.25" x2="568.0" y2="301.25" stroke="#3a3056" stroke-width="0.4"/>
<line x1="60.0" y1="308.50" x2="568.0" y2="308.50" stroke="#3a3056" stroke-width="0.4"/>
<line x1="60.0" y1="315.75" x2="568.0" y2="315.75" stroke="#3a3056" stroke-width="0.4"/>
<line x1="60.0" y1="323.00" x2="568.0" y2="323.00" stroke="#3a3056" stroke-width="0.4"/>
<line x1="60.0" y1="330.25" x2="568.0" y2="330.25" stroke="#3a3056" stroke-width="0.4"/>
<line x1="60.0" y1="337.50" x2="568.0" y2="337.50" stroke="#3a3056" stroke-width="0.4"/>
<line x1="60.0" y1="344.75" x2="568.0" y2="344.75" stroke="#3a3056" stroke-width="0.4"/>
<line x1="60.0" y1="352.00" x2="568.0" y2="352.00" stroke="#3a3056" stroke-width="0.4"/>
<line x1="60.0" y1="359.25" x2="568.0" y2="359.25" stroke="#3a3056" stroke-width="0.4"/>
<line x1="60.0" y1="366.50" x2="568.0" y2="366.50" stroke="#3a3056" stroke-width="0.4"/>
<line x1="60.0" y1="373.75" x2="568.0" y2="373.75" stroke="#3a3056" stroke-width="0.4"/>
<line x1="60.0" y1="381.00" x2="568.0" y2="381.00" stroke="#3a3056" stroke-width="0.4"/>
<line x1="60.0" y1="388.25" x2="568.0" y2="388.25" stroke="#3a3056" stroke-width="0.4"/>
<line x1="60.0" y1="395.50" x2="568.0" y2="395.50" stroke="#3a3056" stroke-width="0.4"/>
<line x1="60.0" y1="402.75" x2="568.0" y2="402.75" stroke="#3a3056" stroke-width="0.4"/>
<line x1="60.0" y1="410.00" x2="568.0" y2="410.00" stroke="#3a3056" stroke-width="0.4"/>
<line x1="60.0" y1="417.25" x2="568.0" y2="417.25" stroke="#3a3056" stroke-width="0.4"/>
<line x1="60.0" y1="424.50" x2="568.0" y2="424.50" stroke="#3a3056" stroke-width="0.4"/>
<line x1="60.0" y1="431.75" x2="568.0" y2="431.75" stroke="#3a3056" stroke-width="0.4"/>
<line x1="60.0" y1="439.00" x2="568.0" y2="439.00" stroke="#3a3056" stroke-width="0.4"/>
<line x1="60.0" y1="446.25" x2="568.0" y2="446.25" stroke="#3a3056" stroke-width="0.4"/>
<line x1="60.0" y1="453.50" x2="568.0" y2="453.50" stroke="#3a3056" stroke-width="0.4"/>
<line x1="60.0" y1="460.75" x2="568.0" y2="460.75" stroke="#3a3056" stroke-width="0.4"/>
<line x1="60.0" y1="468.00" x2="568.0" y2="468.00" stroke="#3a3056" stroke-width="0.4"/>
<rect x="500.53" y="120.00" width="3.47" height="6.75" fill="#ef4e7b"/>
<rect x="135.41" y="120.00" width="3.47" height="6.75" fill="#ef4e7b"/>
<rect x="79.84" y="120.00" width="3.47" height="6.75" fill="#ef4e7b"/>
<rect x="218.75" y="120.00" width="3.47" height="6.75" fill="#ef4e7b"/>
<rect x="496.56" y="120.00" width="3.47" height="6.75" fill="#ef4e7b"/>
<rect x="63.97" y="120.00" width="3.47" height="6.75" fill="#ef4e7b"/>
<rect x="163.19" y="120.00" width="3.47" height="6.75" fill="#ef4e7b"/>
<rect x="365.59" y="120.00" width="3.47" height="6.75" fill="#ef4e7b"/>
<rect x="472.75" y="127.25" width="3.47" height="6.75" fill="#ef5079"/>
<rect x="492.59" y="127.25" width="3.47" height="6.75" fill="#ef5079"/>
<rect x="95.72" y="127.25" width="3.47" height="6.75" fill="#ef5079"/>
<rect x="564.03" y="127.25" width="3.47" height="6.75" fill="#ef5079"/>
<rect x="528.31" y="127.25" width="3.47" height="6.75" fill="#ef5079"/>
<rect x="532.28" y="127.25" width="3.47" height="6.75" fill="#ef5079"/>
<rect x="230.66" y="127.25" width="3.47" height="6.75" fill="#ef5079"/>
<rect x="306.06" y="127.25" width="3.47" height="6.75" fill="#ef5079"/>
<rect x="107.62" y="134.50" width="3.47" height="6.75" fill="#ef5278"/>
<rect x="60.00" y="134.50" width="3.47" height="6.75" fill="#ef5278"/>
<rect x="381.47" y="134.50" width="3.47" height="6.75" fill="#ef5278"/>
<rect x="405.28" y="134.50" width="3.47" height="6.75" fill="#ef5278"/>
<rect x="119.53" y="134.50" width="3.47" height="6.75" fill="#ef5278"/>
<rect x="99.69" y="134.50" width="3.47" height="6.75" fill="#ef5278"/>
<rect x="532.28" y="134.50" width="3.47" height="6.75" fill="#ef5278"/>
<rect x="421.16" y="134.50" width="3.47" height="6.75" fill="#ef5278"/>
<rect x="234.62" y="141.75" width="3.47" height="6.75" fill="#f05577"/>
<rect x="290.19" y="141.75" width="3.47" height="6.75" fill="#f05577"/>
<rect x="310.03" y="141.75" width="3.47" height="6.75" fill="#f05577"/>
<rect x="167.16" y="141.75" width="3.47" height="6.75" fill="#f05577"/>
<rect x="298.12" y="141.75" width="3.47" height="6.75" fill="#f05577"/>
<rect x="83.81" y="141.75" width="3.47" height="6.75" fill="#f05577"/>
<rect x="325.91" y="141.75" width="3.47" height="6.75" fill="#f05577"/>
<rect x="278.28" y="141.75" width="3.47" height="6.75" fill="#f05577"/>
<rect x="179.06" y="149.00" width="3.47" height="6.75" fill="#f05776"/>
<rect x="564.03" y="149.00" width="3.47" height="6.75" fill="#f05776"/>
<rect x="75.88" y="149.00" width="3.47" height="6.75" fill="#f05776"/>
<rect x="349.72" y="149.00" width="3.47" height="6.75" fill="#f05776"/>
<rect x="365.59" y="149.00" width="3.47" height="6.75" fill="#f05776"/>
<rect x="329.88" y="149.00" width="3.47" height="6.75" fill="#f05776"/>
<rect x="282.25" y="149.00" width="3.47" height="6.75" fill="#f05776"/>
<rect x="60.00" y="149.00" width="3.47" height="6.75" fill="#f05776"/>
<rect x="258.44" y="156.25" width="3.47" height="6.75" fill="#f05a75"/>
<rect x="405.28" y="156.25" width="3.47" height="6.75" fill="#f05a75"/>
<rect x="464.81" y="156.25" width="3.47" height="6.75" fill="#f05a75"/>
<rect x="155.25" y="156.25" width="3.47" height="6.75" fill="#f05a75"/>
<rect x="294.16" y="156.25" width="3.47" height="6.75" fill="#f05a75"/>
<rect x="183.03" y="156.25" width="3.47" height="6.75" fill="#f05a75"/>
<rect x="306.06" y="156.25" width="3.47" height="6.75" fill="#f05a75"/>
<rect x="532.28" y="156.25" width="3.47" height="6.75" fill="#f05a75"/>
<rect x="492.59" y="163.50" width="3.47" height="6.75" fill="#f15c74"/>
<rect x="421.16" y="163.50" width="3.47" height="6.75" fill="#f15c74"/>
<rect x="556.09" y="163.50" width="3.47" height="6.75" fill="#f15c74"/>
<rect x="103.66" y="163.50" width="3.47" height="6.75" fill="#f15c74"/>
<rect x="314.00" y="163.50" width="3.47" height="6.75" fill="#f15c74"/>
<rect x="278.28" y="163.50" width="3.47" height="6.75" fill="#f15c74"/>
<rect x="167.16" y="163.50" width="3.47" height="6.75" fill="#f15c74"/>
<rect x="548.16" y="163.50" width="3.47" height="6.75" fill="#f15c74"/>
<rect x="472.75" y="170.75" width="3.47" height="6.75" fill="#f15f73"/>
<rect x="564.03" y="170.75" width="3.47" height="6.75" fill="#f15f73"/>
<rect x="365.59" y="170.75" width="3.47" height="6.75" fill="#f15f73"/>
<rect x="476.72" y="170.75" width="3.47" height="6.75" fill="#f15f73"/>
<rect x="270.34" y="170.75" width="3.47" height="6.75" fill="#f15f73"/>
<rect x="460.84" y="170.75" width="3.47" height="6.75" fill="#f15f73"/>
<rect x="266.38" y="170.75" width="3.47" height="6.75" fill="#f15f73"/>
<rect x="60.00" y="170.75" width="3.47" height="6.75" fill="#f15f73"/>
<rect x="460.84" y="178.00" width="3.47" height="6.75" fill="#f16172"/>
<rect x="310.03" y="178.00" width="3.47" height="6.75" fill="#f16172"/>
<rect x="246.53" y="178.00" width="3.47" height="6.75" fill="#f16172"/>
<rect x="441.00" y="178.00" width="3.47" height="6.75" fill="#f16172"/>
<rect x="524.34" y="178.00" width="3.47" height="6.75" fill="#f16172"/>
<rect x="504.50" y="178.00" width="3.47" height="6.75" fill="#f16172"/>
<rect x="127.47" y="178.00" width="3.47" height="6.75" fill="#f16172"/>
<rect x="226.69" y="178.00" width="3.47" height="6.75" fill="#f16172"/>
<rect x="214.78" y="185.25" width="3.47" height="6.75" fill="#f26471"/>
<rect x="329.88" y="185.25" width="3.47" height="6.75" fill="#f26471"/>
<rect x="464.81" y="185.25" width="3.47" height="6.75" fill="#f26471"/>
<rect x="520.38" y="185.25" width="3.47" height="6.75" fill="#f26471"/>
<rect x="540.22" y="185.25" width="3.47" height="6.75" fill="#f26471"/>
<rect x="226.69" y="185.25" width="3.47" height="6.75" fill="#f26471"/>
<rect x="508.47" y="185.25" width="3.47" height="6.75" fill="#f26471"/>
<rect x="127.47" y="185.25" width="3.47" height="6.75" fill="#f26471"/>
<rect x="337.81" y="192.50" width="3.47" height="6.75" fill="#f26670"/>
<rect x="294.16" y="192.50" width="3.47" height="6.75" fill="#f26670"/>
<rect x="452.91" y="192.50" width="3.47" height="6.75" fill="#f26670"/>
<rect x="397.34" y="192.50" width="3.47" height="6.75" fill="#f26670"/>
<rect x="266.38" y="192.50" width="3.47" height="6.75" fill="#f26670"/>
<rect x="103.66" y="192.50" width="3.47" height="6.75" fill="#f26670"/>
<rect x="83.81" y="192.50" width="3.47" height="6.75" fill="#f26670"/>
<rect x="341.78" y="192.50" width="3.47" height="6.75" fill="#f26670"/>
<rect x="103.66" y="199.75" width="3.47" height="6.75" fill="#f2696f"/>
<rect x="95.72" y="199.75" width="3.47" height="6.75" fill="#f2696f"/>
<rect x="448.94" y="199.75" width="3.47" height="6.75" fill="#f2696f"/>
<rect x="60.00" y="199.75" width="3.47" height="6.75" fill="#f2696f"/>
<rect x="290.19" y="199.75" width="3.47" height="6.75" fill="#f2696f"/>
<rect x="198.91" y="199.75" width="3.47" height="6.75" fill="#f2696f"/>
<rect x="508.47" y="199.75" width="3.47" height="6.75" fill="#f2696f"/>
<rect x="532.28" y="199.75" width="3.47" height="6.75" fill="#f2696f"/>
<rect x="115.56" y="207.00" width="3.47" height="6.75" fill="#f36b6e"/>
<rect x="87.78" y="207.00" width="3.47" height="6.75" fill="#f36b6e"/>
<rect x="349.72" y="207.00" width="3.47" height="6.75" fill="#f36b6e"/>
<rect x="516.41" y="207.00" width="3.47" height="6.75" fill="#f36b6e"/>
<rect x="433.06" y="207.00" width="3.47" height="6.75" fill="#f36b6e"/>
<rect x="520.38" y="207.00" width="3.47" height="6.75" fill="#f36b6e"/>
<rect x="183.03" y="207.00" width="3.47" height="6.75" fill="#f36b6e"/>
<rect x="361.62" y="207.00" width="3.47" height="6.75" fill="#f36b6e"/>
<rect x="163.19" y="214.25" width="3.47" height="6.75" fill="#f36e6d"/>
<rect x="349.72" y="214.25" width="3.47" height="6.75" fill="#f36e6d"/>
<rect x="516.41" y="214.25" width="3.47" height="6.75" fill="#f36e6d"/>
<rect x="429.09" y="214.25" width="3.47" height="6.75" fill="#f36e6d"/>
<rect x="468.78" y="214.25" width="3.47" height="6.75" fill="#f36e6d"/>
<rect x="528.31" y="214.25" width="3.47" height="6.75" fill="#f36e6d"/>
<rect x="437.03" y="214.25" width="3.47" height="6.75" fill="#f36e6d"/>
<rect x="91.75" y="214.25" width="3.47" height="6.75" fill="#f36e6d"/>
<rect x="79.84" y="221.50" width="3.47" height="6.75" fill="#f3706c"/>
<rect x="317.97" y="221.50" width="3.47" height="6.75" fill="#f3706c"/>
<rect x="409.25" y="221.50" width="3.47" height="6.75" fill="#f3706c"/>
<rect x="389.41" y="221.50" width="3.47" height="6.75" fill="#f3706c"/>
<rect x="206.84" y="221.50" width="3.47" height="6.75" fill="#f3706c"/>
<rect x="472.75" y="221.50" width="3.47" height="6.75" fill="#f3706c"/>
<rect x="119.53" y="221.50" width="3.47" height="6.75" fill="#f3706c"/>
<rect x="369.56" y="221.50" width="3.47" height="6.75" fill="#f3706c"/>
<rect x="524.34" y="228.75" width="3.47" height="6.75" fill="#f4736b"/>
<rect x="393.38" y="228.75" width="3.47" height="6.75" fill="#f4736b"/>
<rect x="472.75" y="228.75" width="3.47" height="6.75" fill="#f4736b"/>
<rect x="417.19" y="228.75" width="3.47" height="6.75" fill="#f4736b"/>
<rect x="492.59" y="228.75" width="3.47" height="6.75" fill="#f4736b"/>
<rect x="365.59" y="228.75" width="3.47" height="6.75" fill="#f4736b"/>
<rect x="266.38" y="228.75" width="3.47" height="6.75" fill="#f4736b"/>
<rect x="444.97" y="228.75" width="3.47" height="6.75" fill="#f4736b"/>
<rect x="183.03" y="236.00" width="3.47" height="6.75" fill="#f4756a"/>
<rect x="448.94" y="236.00" width="3.47" height="6.75" fill="#f4756a"/>
<rect x="167.16" y="236.00" width="3.47" height="6.75" fill="#f4756a"/>
<rect x="119.53" y="236.00" width="3.47" height="6.75" fill="#f4756a"/>
<rect x="147.31" y="236.00" width="3.47" height="6.75" fill="#f4756a"/>
<rect x="536.25" y="236.00" width="3.47" height="6.75" fill="#f4756a"/>
<rect x="99.69" y="236.00" width="3.47" height="6.75" fill="#f4756a"/>
<rect x="528.31" y="236.00" width="3.47" height="6.75" fill="#f4756a"/>
<rect x="123.50" y="243.25" width="3.47" height="6.75" fill="#f47769"/>
<rect x="230.66" y="243.25" width="3.47" height="6.75" fill="#f47769"/>
<rect x="171.12" y="243.25" width="3.47" height="6.75" fill="#f47769"/>
<rect x="369.56" y="243.25" width="3.47" height="6.75" fill="#f47769"/>
<rect x="564.03" y="243.25" width="3.47" height="6.75" fill="#f47769"/>
<rect x="548.16" y="243.25" width="3.47" height="6.75" fill="#f47769"/>
<rect x="131.44" y="243.25" width="3.47" height="6.75" fill="#f47769"/>
<rect x="381.47" y="243.25" width="3.47" height="6.75" fill="#f47769"/>
<rect x="139.38" y="250.50" width="3.47" height="6.75" fill="#f57a68"/>
<rect x="441.00" y="250.50" width="3.47" height="6.75" fill="#f57a68"/>
<rect x="425.12" y="250.50" width="3.47" height="6.75" fill="#f57a68"/>
<rect x="198.91" y="250.50" width="3.47" height="6.75" fill="#f57a68"/>
<rect x="175.09" y="250.50" width="3.47" height="6.75" fill="#f57a68"/>
<rect x="468.78" y="250.50" width="3.47" height="6.75" fill="#f57a68"/>
<rect x="298.12" y="250.50" width="3.47" height="6.75" fill="#f57a68"/>
<rect x="210.81" y="250.50" width="3.47" height="6.75" fill="#f57a68"/>
<rect x="441.00" y="257.75" width="3.47" height="6.75" fill="#f57c67"/>
<rect x="353.69" y="257.75" width="3.47" height="6.75" fill="#f57c67"/>
<rect x="246.53" y="257.75" width="3.47" height="6.75" fill="#f57c67"/>
<rect x="329.88" y="257.75" width="3.47" height="6.75" fill="#f57c67"/>
<rect x="444.97" y="257.75" width="3.47" height="6.75" fill="#f57c67"/>
<rect x="274.31" y="257.75" width="3.47" height="6.75" fill="#f57c67"/>
<rect x="63.97" y="257.75" width="3.47" height="6.75" fill="#f57c67"/>
<rect x="290.19" y="257.75" width="3.47" height="6.75" fill="#f57c67"/>
<rect x="516.41" y="265.00" width="3.47" height="6.75" fill="#f57f66"/>
<rect x="151.28" y="265.00" width="3.47" height="6.75" fill="#f57f66"/>
<rect x="444.97" y="265.00" width="3.47" height="6.75" fill="#f57f66"/>
<rect x="139.38" y="265.00" width="3.47" height="6.75" fill="#f57f66"/>
<rect x="234.62" y="265.00" width="3.47" height="6.75" fill="#f57f66"/>
<rect x="194.94" y="265.00" width="3.47" height="6.75" fill="#f57f66"/>
<rect x="341.78" y="265.00" width="3.47" height="6.75" fill="#f57f66"/>
<rect x="321.94" y="265.00" width="3.47" height="6.75" fill="#f57f66"/>
<rect x="210.81" y="272.25" width="3.47" height="6.75" fill="#f68165"/>
<rect x="278.28" y="272.25" width="3.47" height="6.75" fill="#f68165"/>
<rect x="476.72" y="272.25" width="3.47" height="6.75" fill="#f68165"/>
<rect x="464.81" y="272.25" width="3.47" height="6.75" fill="#f68165"/>
<rect x="536.25" y="272.25" width="3.47" height="6.75" fill="#f68165"/>
<rect x="385.44" y="272.25" width="3.47" height="6.75" fill="#f68165"/>
<rect x="274.31" y="272.25" width="3.47" height="6.75" fill="#f68165"/>
<rect x="444.97" y="272.25" width="3.47" height="6.75" fill="#f68165"/>
<rect x="413.22" y="279.50" width="3.47" height="6.75" fill="#f68464"/>
<rect x="361.62" y="279.50" width="3.47" height="6.75" fill="#f68464"/>
<rect x="496.56" y="279.50" width="3.47" height="6.75" fill="#f68464"/>
<rect x="127.47" y="279.50" width="3.47" height="6.75" fill="#f68464"/>
<rect x="175.09" y="279.50" width="3.47" height="6.75" fill="#f68464"/>
<rect x="516.41" y="279.50" width="3.47" height="6.75" fill="#f68464"/>
<rect x="151.28" y="279.50" width="3.47" height="6.75" fill="#f68464"/>
<rect x="409.25" y="279.50" width="3.47" height="6.75" fill="#f68464"/>
<rect x="437.03" y="286.75" width="3.47" height="6.75" fill="#f68663"/>
<rect x="508.47" y="286.75" width="3.47" height="6.75" fill="#f68663"/>
<rect x="155.25" y="286.75" width="3.47" height="6.75" fill="#f68663"/>
<rect x="258.44" y="286.75" width="3.47" height="6.75" fill="#f68663"/>
<rect x="210.81" y="286.75" width="3.47" height="6.75" fill="#f68663"/>
<rect x="286.22" y="286.75" width="3.47" height="6.75" fill="#f68663"/>
<rect x="131.44" y="286.75" width="3.47" height="6.75" fill="#f68663"/>
<rect x="560.06" y="286.75" width="3.47" height="6.75" fill="#f68663"/>
<rect x="349.72" y="294.00" width="3.47" height="6.75" fill="#f78961"/>
<rect x="460.84" y="294.00" width="3.47" height="6.75" fill="#f78961"/>
<rect x="179.06" y="294.00" width="3.47" height="6.75" fill="#f78961"/>
<rect x="246.53" y="294.00" width="3.47" height="6.75" fill="#f78961"/>
<rect x="67.94" y="294.00" width="3.47" height="6.75" fill="#f78961"/>
<rect x="448.94" y="294.00" width="3.47" height="6.75" fill="#f78961"/>
<rect x="369.56" y="294.00" width="3.47" height="6.75" fill="#f78961"/>
<rect x="314.00" y="294.00" width="3.47" height="6.75" fill="#f78961"/>
<rect x="397.34" y="301.25" width="3.47" height="6.75" fill="#f78b60"/>
<rect x="365.59" y="301.25" width="3.47" height="6.75" fill="#f78b60"/>
<rect x="183.03" y="301.25" width="3.47" height="6.75" fill="#f78b60"/>
<rect x="254.47" y="301.25" width="3.47" height="6.75" fill="#f78b60"/>
<rect x="548.16" y="301.25" width="3.47" height="6.75" fill="#f78b60"/>
<rect x="353.69" y="301.25" width="3.47" height="6.75" fill="#f78b60"/>
<rect x="222.72" y="301.25" width="3.47" height="6.75" fill="#f78b60"/>
<rect x="147.31" y="301.25" width="3.47" height="6.75" fill="#f78b60"/>
<rect x="190.97" y="308.50" width="3.47" height="6.75" fill="#f78e5f"/>
<rect x="115.56" y="308.50" width="3.47" height="6.75" fill="#f78e5f"/>
<rect x="437.03" y="308.50" width="3.47" height="6.75" fill="#f78e5f"/>
<rect x="552.12" y="308.50" width="3.47" height="6.75" fill="#f78e5f"/>
<rect x="425.12" y="308.50" width="3.47" height="6.75" fill="#f78e5f"/>
<rect x="540.22" y="308.50" width="3.47" height="6.75" fill="#f78e5f"/>
<rect x="151.28" y="308.50" width="3.47" height="6.75" fill="#f78e5f"/>
<rect x="496.56" y="308.50" width="3.47" height="6.75" fill="#f78e5f"/>
<rect x="187.00" y="315.75" width="3.47" height="6.75" fill="#f8905e"/>
<rect x="464.81" y="315.75" width="3.47" height="6.75" fill="#f8905e"/>
<rect x="341.78" y="315.75" width="3.47" height="6.75" fill="#f8905e"/>
<rect x="63.97" y="315.75" width="3.47" height="6.75" fill="#f8905e"/>
<rect x="183.03" y="315.75" width="3.47" height="6.75" fill="#f8905e"/>
<rect x="560.06" y="315.75" width="3.47" height="6.75" fill="#f8905e"/>
<rect x="194.94" y="315.75" width="3.47" height="6.75" fill="#f8905e"/>
<rect x="405.28" y="315.75" width="3.47" height="6.75" fill="#f8905e"/>
<rect x="357.66" y="323.00" width="3.47" height="6.75" fill="#f8935d"/>
<rect x="488.62" y="323.00" width="3.47" height="6.75" fill="#f8935d"/>
<rect x="393.38" y="323.00" width="3.47" height="6.75" fill="#f8935d"/>
<rect x="448.94" y="323.00" width="3.47" height="6.75" fill="#f8935d"/>
<rect x="167.16" y="323.00" width="3.47" height="6.75" fill="#f8935d"/>
<rect x="476.72" y="323.00" width="3.47" height="6.75" fill="#f8935d"/>
<rect x="95.72" y="323.00" width="3.47" height="6.75" fill="#f8935d"/>
<rect x="222.72" y="323.00" width="3.47" height="6.75" fill="#f8935d"/>
<rect x="341.78" y="330.25" width="3.47" height="6.75" fill="#f8955c"/>
<rect x="306.06" y="330.25" width="3.47" height="6.75" fill="#f8955c"/>
<rect x="468.78" y="330.25" width="3.47" height="6.75" fill="#f8955c"/>
<rect x="123.50" y="330.25" width="3.47" height="6.75" fill="#f8955c"/>
<rect x="302.09" y="330.25" width="3.47" height="6.75" fill="#f8955c"/>
<rect x="314.00" y="330.25" width="3.47" height="6.75" fill="#f8955c"/>
<rect x="103.66" y="330.25" width="3.47" height="6.75" fill="#f8955c"/>
<rect x="452.91" y="330.25" width="3.47" height="6.75" fill="#f8955c"/>
<rect x="302.09" y="337.50" width="3.47" height="6.75" fill="#f9985b"/>
<rect x="103.66" y="337.50" width="3.47" height="6.75" fill="#f9985b"/>
<rect x="413.22" y="337.50" width="3.47" height="6.75" fill="#f9985b"/>
<rect x="437.03" y="337.50" width="3.47" height="6.75" fill="#f9985b"/>
<rect x="385.44" y="337.50" width="3.47" height="6.75" fill="#f9985b"/>
<rect x="71.91" y="337.50" width="3.47" height="6.75" fill="#f9985b"/>
<rect x="131.44" y="337.50" width="3.47" height="6.75" fill="#f9985b"/>
<rect x="190.97" y="337.50" width="3.47" height="6.75" fill="#f9985b"/>
<rect x="163.19" y="344.75" width="3.47" height="6.75" fill="#f99a5a"/>
<rect x="389.41" y="344.75" width="3.47" height="6.75" fill="#f99a5a"/>
<rect x="302.09" y="344.75" width="3.47" height="6.75" fill="#f99a5a"/>
<rect x="476.72" y="344.75" width="3.47" height="6.75" fill="#f99a5a"/>
<rect x="508.47" y="344.75" width="3.47" height="6.75" fill="#f99a5a"/>
<rect x="381.47" y="344.75" width="3.47" height="6.75" fill="#f99a5a"/>
<rect x="520.38" y="344.75" width="3.47" height="6.75" fill="#f99a5a"/>
<rect x="210.81" y="344.75" width="3.47" height="6.75" fill="#f99a5a"/>
<rect x="492.59" y="352.00" width="3.47" height="6.75" fill="#f99c59"/>
<rect x="552.12" y="352.00" width="3.47" height="6.75" fill="#f99c59"/>
<rect x="532.28" y="352.00" width="3.47" height="6.75" fill="#f99c59"/>
<rect x="544.19" y="352.00" width="3.47" height="6.75" fill="#f99c59"/>
<rect x="393.38" y="352.00" width="3.47" height="6.75" fill="#f99c59"/>
<rect x="429.09" y="352.00" width="3.47" height="6.75" fill="#f99c59"/>
<rect x="60.00" y="352.00" width="3.47" height="6.75" fill="#f99c59"/>
<rect x="317.97" y="352.00" width="3.47" height="6.75" fill="#f99c59"/>
<rect x="333.84" y="359.25" width="3.47" height="6.75" fill="#fa9f58"/>
<rect x="230.66" y="359.25" width="3.47" height="6.75" fill="#fa9f58"/>
<rect x="103.66" y="359.25" width="3.47" height="6.75" fill="#fa9f58"/>
<rect x="353.69" y="359.25" width="3.47" height="6.75" fill="#fa9f58"/>
<rect x="242.56" y="359.25" width="3.47" height="6.75" fill="#fa9f58"/>
<rect x="520.38" y="359.25" width="3.47" height="6.75" fill="#fa9f58"/>
<rect x="310.03" y="359.25" width="3.47" height="6.75" fill="#fa9f58"/>
<rect x="321.94" y="359.25" width="3.47" height="6.75" fill="#fa9f58"/>
<rect x="151.28" y="366.50" width="3.47" height="6.75" fill="#faa157"/>
<rect x="532.28" y="366.50" width="3.47" height="6.75" fill="#faa157"/>
<rect x="60.00" y="366.50" width="3.47" height="6.75" fill="#faa157"/>
<rect x="278.28" y="366.50" width="3.47" height="6.75" fill="#faa157"/>
<rect x="413.22" y="366.50" width="3.47" height="6.75" fill="#faa157"/>
<rect x="75.88" y="366.50" width="3.47" height="6.75" fill="#faa157"/>
<rect x="492.59" y="366.50" width="3.47" height="6.75" fill="#faa157"/>
<rect x="230.66" y="366.50" width="3.47" height="6.75" fill="#faa157"/>
<rect x="151.28" y="373.75" width="3.47" height="6.75" fill="#faa456"/>
<rect x="544.19" y="373.75" width="3.47" height="6.75" fill="#faa456"/>
<rect x="254.47" y="373.75" width="3.47" height="6.75" fill="#faa456"/>
<rect x="115.56" y="373.75" width="3.47" height="6.75" fill="#faa456"/>
<rect x="548.16" y="373.75" width="3.47" height="6.75" fill="#faa456"/>
<rect x="468.78" y="373.75" width="3.47" height="6.75" fill="#faa456"/>
<rect x="532.28" y="373.75" width="3.47" height="6.75" fill="#faa456"/>
<rect x="417.19" y="373.75" width="3.47" height="6.75" fill="#faa456"/>
<rect x="131.44" y="381.00" width="3.47" height="6.75" fill="#fba655"/>
<rect x="369.56" y="381.00" width="3.47" height="6.75" fill="#fba655"/>
<rect x="194.94" y="381.00" width="3.47" height="6.75" fill="#fba655"/>
<rect x="190.97" y="381.00" width="3.47" height="6.75" fill="#fba655"/>
<rect x="214.78" y="381.00" width="3.47" height="6.75" fill="#fba655"/>
<rect x="508.47" y="381.00" width="3.47" height="6.75" fill="#fba655"/>
<rect x="175.09" y="381.00" width="3.47" height="6.75" fill="#fba655"/>
<rect x="234.62" y="381.00" width="3.47" height="6.75" fill="#fba655"/>
<rect x="222.72" y="388.25" width="3.47" height="6.75" fill="#fba954"/>
<rect x="329.88" y="388.25" width="3.47" height="6.75" fill="#fba954"/>
<rect x="202.88" y="388.25" width="3.47" height="6.75" fill="#fba954"/>
<rect x="508.47" y="388.25" width="3.47" height="6.75" fill="#fba954"/>
<rect x="524.34" y="388.25" width="3.47" height="6.75" fill="#fba954"/>
<rect x="99.69" y="388.25" width="3.47" height="6.75" fill="#fba954"/>
<rect x="198.91" y="388.25" width="3.47" height="6.75" fill="#fba954"/>
<rect x="63.97" y="388.25" width="3.47" height="6.75" fill="#fba954"/>
<rect x="254.47" y="395.50" width="3.47" height="6.75" fill="#fbab53"/>
<rect x="333.84" y="395.50" width="3.47" height="6.75" fill="#fbab53"/>
<rect x="147.31" y="395.50" width="3.47" height="6.75" fill="#fbab53"/>
<rect x="405.28" y="395.50" width="3.47" height="6.75" fill="#fbab53"/>
<rect x="373.53" y="395.50" width="3.47" height="6.75" fill="#fbab53"/>
<rect x="242.56" y="395.50" width="3.47" height="6.75" fill="#fbab53"/>
<rect x="60.00" y="395.50" width="3.47" height="6.75" fill="#fbab53"/>
<rect x="325.91" y="395.50" width="3.47" height="6.75" fill="#fbab53"/>
<rect x="377.50" y="402.75" width="3.47" height="6.75" fill="#fcae52"/>
<rect x="202.88" y="402.75" width="3.47" height="6.75" fill="#fcae52"/>
<rect x="460.84" y="402.75" width="3.47" height="6.75" fill="#fcae52"/>
<rect x="67.94" y="402.75" width="3.47" height="6.75" fill="#fcae52"/>
<rect x="476.72" y="402.75" width="3.47" height="6.75" fill="#fcae52"/>
<rect x="71.91" y="402.75" width="3.47" height="6.75" fill="#fcae52"/>
<rect x="95.72" y="402.75" width="3.47" height="6.75" fill="#fcae52"/>
<rect x="373.53" y="402.75" width="3.47" height="6.75" fill="#fcae52"/>
<rect x="433.06" y="410.00" width="3.47" height="6.75" fill="#fcb051"/>
<rect x="500.53" y="410.00" width="3.47" height="6.75" fill="#fcb051"/>
<rect x="492.59" y="410.00" width="3.47" height="6.75" fill="#fcb051"/>
<rect x="496.56" y="410.00" width="3.47" height="6.75" fill="#fcb051"/>
<rect x="194.94" y="410.00" width="3.47" height="6.75" fill="#fcb051"/>
<rect x="79.84" y="410.00" width="3.47" height="6.75" fill="#fcb051"/>
<rect x="421.16" y="410.00" width="3.47" height="6.75" fill="#fcb051"/>
<rect x="107.62" y="410.00" width="3.47" height="6.75" fill="#fcb051"/>
<rect x="111.59" y="417.25" width="3.47" height="6.75" fill="#fcb350"/>
<rect x="210.81" y="417.25" width="3.47" height="6.75" fill="#fcb350"/>
<rect x="107.62" y="417.25" width="3.47" height="6.75" fill="#fcb350"/>
<rect x="95.72" y="417.25" width="3.47" height="6.75" fill="#fcb350"/>
<rect x="298.12" y="417.25" width="3.47" height="6.75" fill="#fcb350"/>
<rect x="119.53" y="417.25" width="3.47" height="6.75" fill="#fcb350"/>
<rect x="357.66" y="417.25" width="3.47" height="6.75" fill="#fcb350"/>
<rect x="127.47" y="417.25" width="3.47" height="6.75" fill="#fcb350"/>
<rect x="294.16" y="424.50" width="3.47" height="6.75" fill="#fdb54f"/>
<rect x="167.16" y="424.50" width="3.47" height="6.75" fill="#fdb54f"/>
<rect x="67.94" y="424.50" width="3.47" height="6.75" fill="#fdb54f"/>
<rect x="500.53" y="424.50" width="3.47" height="6.75" fill="#fdb54f"/>
<rect x="325.91" y="424.50" width="3.47" height="6.75" fill="#fdb54f"/>
<rect x="151.28" y="424.50" width="3.47" height="6.75" fill="#fdb54f"/>
<rect x="234.62" y="424.50" width="3.47" height="6.75" fill="#fdb54f"/>
<rect x="385.44" y="424.50" width="3.47" height="6.75" fill="#fdb54f"/>
<rect x="194.94" y="431.75" width="3.47" height="6.75" fill="#fdb84e"/>
<rect x="437.03" y="431.75" width="3.47" height="6.75" fill="#fdb84e"/>
<rect x="159.22" y="431.75" width="3.47" height="6.75" fill="#fdb84e"/>
<rect x="250.50" y="431.75" width="3.47" height="6.75" fill="#fdb84e"/>
<rect x="536.25" y="431.75" width="3.47" height="6.75" fill="#fdb84e"/>
<rect x="270.34" y="431.75" width="3.47" height="6.75" fill="#fdb84e"/>
<rect x="500.53" y="431.75" width="3.47" height="6.75" fill="#fdb84e"/>
<rect x="532.28" y="431.75" width="3.47" height="6.75" fill="#fdb84e"/>
<rect x="544.19" y="439.00" width="3.47" height="6.75" fill="#fdba4d"/>
<rect x="60.00" y="439.00" width="3.47" height="6.75" fill="#fdba4d"/>
<rect x="488.62" y="439.00" width="3.47" height="6.75" fill="#fdba4d"/>
<rect x="254.47" y="439.00" width="3.47" height="6.75" fill="#fdba4d"/>
<rect x="548.16" y="439.00" width="3.47" height="6.75" fill="#fdba4d"/>
<rect x="310.03" y="439.00" width="3.47" height="6.75" fill="#fdba4d"/>
<rect x="441.00" y="439.00" width="3.47" height="6.75" fill="#fdba4d"/>
<rect x="349.72" y="439.00" width="3.47" height="6.75" fill="#fdba4d"/>
<rect x="317.97" y="446.25" width="3.47" height="6.75" fill="#febd4c"/>
<rect x="448.94" y="446.25" width="3.47" height="6.75" fill="#febd4c"/>
<rect x="496.56" y="446.25" width="3.47" height="6.75" fill="#febd4c"/>
<rect x="464.81" y="446.25" width="3.47" height="6.75" fill="#febd4c"/>
<rect x="294.16" y="446.25" width="3.47" height="6.75" fill="#febd4c"/>
<rect x="504.50" y="446.25" width="3.47" height="6.75" fill="#febd4c"/>
<rect x="278.28" y="446.25" width="3.47" height="6.75" fill="#febd4c"/>
<rect x="385.44" y="446.25" width="3.47" height="6.75" fill="#febd4c"/>
<rect x="210.81" y="453.50" width="3.47" height="6.75" fill="#febf4b"/>
<rect x="425.12" y="453.50" width="3.47" height="6.75" fill="#febf4b"/>
<rect x="552.12" y="453.50" width="3.47" height="6.75" fill="#febf4b"/>
<rect x="290.19" y="453.50" width="3.47" height="6.75" fill="#febf4b"/>
<rect x="151.28" y="453.50" width="3.47" height="6.75" fill="#febf4b"/>
<rect x="528.31" y="453.50" width="3.47" height="6.75" fill="#febf4b"/>
<rect x="183.03" y="453.50" width="3.47" height="6.75" fill="#febf4b"/>
<rect x="111.59" y="453.50" width="3.47" height="6.75" fill="#febf4b"/>
<rect x="460.84" y="460.75" width="3.47" height="6.75" fill="#ffc24a"/>
<rect x="329.88" y="460.75" width="3.47" height="6.75" fill="#ffc24a"/>
<rect x="218.75" y="460.75" width="3.47" height="6.75" fill="#ffc24a"/>
<rect x="71.91" y="460.75" width="3.47" height="6.75" fill="#ffc24a"/>
<rect x="425.12" y="460.75" width="3.47" height="6.75" fill="#ffc24a"/>
<rect x="405.28" y="460.75" width="3.47" height="6.75" fill="#ffc24a"/>
<rect x="437.03" y="460.75" width="3.47" height="6.75" fill="#ffc24a"/>
<rect x="365.59" y="460.75" width="3.47" height="6.75" fill="#ffc24a"/>
<line x1="60.0" y1="470" x2="60.0" y2="475" stroke="#a99cc0" stroke-width="1"/>
<text x="60.0" y="487" fill="#a99cc0" font-size="10.5" text-anchor="middle">0</text>
<line x1="187.0" y1="470" x2="187.0" y2="475" stroke="#a99cc0" stroke-width="1"/>
<text x="187.0" y="487" fill="#a99cc0" font-size="10.5" text-anchor="middle">32</text>
<line x1="314.0" y1="470" x2="314.0" y2="475" stroke="#a99cc0" stroke-width="1"/>
<text x="314.0" y="487" fill="#a99cc0" font-size="10.5" text-anchor="middle">64</text>
<line x1="441.0" y1="470" x2="441.0" y2="475" stroke="#a99cc0" stroke-width="1"/>
<text x="441.0" y="487" fill="#a99cc0" font-size="10.5" text-anchor="middle">96</text>
<line x1="568.0" y1="470" x2="568.0" y2="475" stroke="#a99cc0" stroke-width="1"/>
<text x="568.0" y="487" fill="#a99cc0" font-size="10.5" text-anchor="middle">128</text>
<text x="314" y="502" fill="#a99cc0" font-size="11" text-anchor="middle">expert index (0&#8211;127)</text>
<text x="54" y="126.6" fill="#a99cc0" font-size="10" text-anchor="end">L0</text>
<text x="54" y="213.6" fill="#a99cc0" font-size="10" text-anchor="end">L12</text>
<text x="54" y="300.6" fill="#a99cc0" font-size="10" text-anchor="end">L24</text>
<text x="54" y="387.6" fill="#a99cc0" font-size="10" text-anchor="end">L36</text>
<text x="54" y="467.4" fill="#a99cc0" font-size="10" text-anchor="end">L47</text>
<text x="48" y="528" fill="#ffc24a" font-size="12.5" font-weight="600">384 expert blocks read this token (8 &#215; 48 layers)</text>
<text x="48" y="545" fill="#a99cc0" font-size="11.5">scattered across 128 resident experts; the next token relights a different 384.</text>
<rect x="612" y="82" width="318" height="476" rx="10" fill="#1d1630" stroke="#2c2342" stroke-width="1"/>
<text x="630" y="106" fill="#efe9f5" font-size="13.5" font-weight="600">4-bit weights: stored vs read/token</text>
<text x="630" y="132" fill="#efe9f5" font-size="13" font-weight="600">Dense 3.3B</text>
<text x="630" y="159" fill="#a99cc0" font-size="11">stored</text>
<rect x="692" y="144" width="168" height="20" rx="3" fill="#3b3160" opacity="0.4"/>
<rect x="692" y="144" width="18.6" height="20" rx="3" fill="#6b5aa0"/>
<text x="717.6" y="159" fill="#a99cc0" font-size="11.5">1.9 GB</text>
<text x="630" y="187" fill="#a99cc0" font-size="11">read</text>
<rect x="692" y="172" width="168" height="20" rx="3" fill="#3b3160" opacity="0.22"/>
<rect x="692" y="172" width="18.6" height="20" rx="3" fill="#ef4e7b"/>
<text x="717.6" y="187" fill="#a99cc0" font-size="11.5">1.9 GB</text>
<text x="630" y="210" fill="#a99cc0" font-size="11.5" font-weight="400">~350 tok/s decode ceiling</text>
<text x="630" y="266" fill="#efe9f5" font-size="13" font-weight="600">Qwen3-30B-A3B (MoE)</text>
<text x="630" y="293" fill="#a99cc0" font-size="11">stored</text>
<rect x="692" y="278" width="168" height="20" rx="3" fill="#3b3160" opacity="0.4"/>
<rect x="692" y="278" width="168.0" height="20" rx="3" fill="#6b5aa0"/>
<text x="867.0" y="293" fill="#a99cc0" font-size="11.5">17.2 GB</text>
<text x="630" y="321" fill="#a99cc0" font-size="11">read</text>
<rect x="692" y="306" width="168" height="20" rx="3" fill="#3b3160" opacity="0.22"/>
<rect x="692" y="306" width="18.6" height="20" rx="3" fill="#ef4e7b"/>
<text x="717.6" y="321" fill="#a99cc0" font-size="11.5">1.9 GB</text>
<text x="630" y="344" fill="#ffc24a" font-size="11.5" font-weight="600">reads like a 3B, stores like a 30B</text>
<text x="630" y="400" fill="#efe9f5" font-size="13" font-weight="600">Dense 30.5B</text>
<text x="630" y="427" fill="#a99cc0" font-size="11">stored</text>
<rect x="692" y="412" width="168" height="20" rx="3" fill="#3b3160" opacity="0.4"/>
<rect x="692" y="412" width="168.0" height="20" rx="3" fill="#6b5aa0"/>
<text x="867.0" y="427" fill="#a99cc0" font-size="11.5">17.2 GB</text>
<text x="630" y="455" fill="#a99cc0" font-size="11">read</text>
<rect x="692" y="440" width="168" height="20" rx="3" fill="#3b3160" opacity="0.22"/>
<rect x="692" y="440" width="168.0" height="20" rx="3" fill="#ef4e7b"/>
<text x="867.0" y="455" fill="#a99cc0" font-size="11.5">17.2 GB</text>
<text x="630" y="478" fill="#a99cc0" font-size="11.5" font-weight="400">~38 tok/s decode ceiling</text>
<text x="34" y="586" fill="#a99cc0" font-size="10">Architecture: Qwen3-30B-A3B model card (Hugging Face). Decode ceilings = 644.6 GB/s R9700 bandwidth &#247; weight bytes read &#8212; upper bounds, not measured throughput.</text>
</svg>